G75*
G70*
%OFA0B0*%
%FSLAX24Y24*%
%IPPOS*%
%LPD*%
%AMOC8*
5,1,8,0,0,1.08239X$1,22.5*
%
%ADD10C,0.0000*%
%ADD11R,0.0276X0.0276*%
%ADD12C,0.0820*%
%ADD13OC8,0.1540*%
%ADD14R,0.0434X0.0473*%
%ADD15C,0.1221*%
%ADD16R,0.0473X0.0434*%
%ADD17R,0.0741X0.0650*%
%ADD18R,0.0840X0.0300*%
%ADD19R,0.0670X0.0750*%
%ADD20R,0.0540X0.0290*%
%ADD21R,0.0290X0.0540*%
%ADD22R,0.0355X0.0355*%
%ADD23R,0.0540X0.0260*%
%ADD24R,0.0750X0.0670*%
%ADD25R,0.0394X0.0670*%
%ADD26R,0.0552X0.0552*%
%ADD27C,0.0104*%
%ADD28OC8,0.0640*%
%ADD29R,0.0512X0.0749*%
%ADD30C,0.0640*%
D10*
X000140Y000290D02*
X000140Y021156D01*
X000140Y021165D02*
X025443Y021165D01*
X025443Y021156D02*
X025443Y000290D01*
X000140Y000290D01*
X001549Y002290D02*
X001551Y002338D01*
X001557Y002386D01*
X001567Y002433D01*
X001580Y002479D01*
X001598Y002524D01*
X001618Y002568D01*
X001643Y002610D01*
X001671Y002649D01*
X001701Y002686D01*
X001735Y002720D01*
X001772Y002752D01*
X001810Y002781D01*
X001851Y002806D01*
X001894Y002828D01*
X001939Y002846D01*
X001985Y002860D01*
X002032Y002871D01*
X002080Y002878D01*
X002128Y002881D01*
X002176Y002880D01*
X002224Y002875D01*
X002272Y002866D01*
X002318Y002854D01*
X002363Y002837D01*
X002407Y002817D01*
X002449Y002794D01*
X002489Y002767D01*
X002527Y002737D01*
X002562Y002704D01*
X002594Y002668D01*
X002624Y002630D01*
X002650Y002589D01*
X002672Y002546D01*
X002692Y002502D01*
X002707Y002457D01*
X002719Y002410D01*
X002727Y002362D01*
X002731Y002314D01*
X002731Y002266D01*
X002727Y002218D01*
X002719Y002170D01*
X002707Y002123D01*
X002692Y002078D01*
X002672Y002034D01*
X002650Y001991D01*
X002624Y001950D01*
X002594Y001912D01*
X002562Y001876D01*
X002527Y001843D01*
X002489Y001813D01*
X002449Y001786D01*
X002407Y001763D01*
X002363Y001743D01*
X002318Y001726D01*
X002272Y001714D01*
X002224Y001705D01*
X002176Y001700D01*
X002128Y001699D01*
X002080Y001702D01*
X002032Y001709D01*
X001985Y001720D01*
X001939Y001734D01*
X001894Y001752D01*
X001851Y001774D01*
X001810Y001799D01*
X001772Y001828D01*
X001735Y001860D01*
X001701Y001894D01*
X001671Y001931D01*
X001643Y001970D01*
X001618Y002012D01*
X001598Y002056D01*
X001580Y002101D01*
X001567Y002147D01*
X001557Y002194D01*
X001551Y002242D01*
X001549Y002290D01*
X001549Y019290D02*
X001551Y019338D01*
X001557Y019386D01*
X001567Y019433D01*
X001580Y019479D01*
X001598Y019524D01*
X001618Y019568D01*
X001643Y019610D01*
X001671Y019649D01*
X001701Y019686D01*
X001735Y019720D01*
X001772Y019752D01*
X001810Y019781D01*
X001851Y019806D01*
X001894Y019828D01*
X001939Y019846D01*
X001985Y019860D01*
X002032Y019871D01*
X002080Y019878D01*
X002128Y019881D01*
X002176Y019880D01*
X002224Y019875D01*
X002272Y019866D01*
X002318Y019854D01*
X002363Y019837D01*
X002407Y019817D01*
X002449Y019794D01*
X002489Y019767D01*
X002527Y019737D01*
X002562Y019704D01*
X002594Y019668D01*
X002624Y019630D01*
X002650Y019589D01*
X002672Y019546D01*
X002692Y019502D01*
X002707Y019457D01*
X002719Y019410D01*
X002727Y019362D01*
X002731Y019314D01*
X002731Y019266D01*
X002727Y019218D01*
X002719Y019170D01*
X002707Y019123D01*
X002692Y019078D01*
X002672Y019034D01*
X002650Y018991D01*
X002624Y018950D01*
X002594Y018912D01*
X002562Y018876D01*
X002527Y018843D01*
X002489Y018813D01*
X002449Y018786D01*
X002407Y018763D01*
X002363Y018743D01*
X002318Y018726D01*
X002272Y018714D01*
X002224Y018705D01*
X002176Y018700D01*
X002128Y018699D01*
X002080Y018702D01*
X002032Y018709D01*
X001985Y018720D01*
X001939Y018734D01*
X001894Y018752D01*
X001851Y018774D01*
X001810Y018799D01*
X001772Y018828D01*
X001735Y018860D01*
X001701Y018894D01*
X001671Y018931D01*
X001643Y018970D01*
X001618Y019012D01*
X001598Y019056D01*
X001580Y019101D01*
X001567Y019147D01*
X001557Y019194D01*
X001551Y019242D01*
X001549Y019290D01*
X023049Y019290D02*
X023051Y019338D01*
X023057Y019386D01*
X023067Y019433D01*
X023080Y019479D01*
X023098Y019524D01*
X023118Y019568D01*
X023143Y019610D01*
X023171Y019649D01*
X023201Y019686D01*
X023235Y019720D01*
X023272Y019752D01*
X023310Y019781D01*
X023351Y019806D01*
X023394Y019828D01*
X023439Y019846D01*
X023485Y019860D01*
X023532Y019871D01*
X023580Y019878D01*
X023628Y019881D01*
X023676Y019880D01*
X023724Y019875D01*
X023772Y019866D01*
X023818Y019854D01*
X023863Y019837D01*
X023907Y019817D01*
X023949Y019794D01*
X023989Y019767D01*
X024027Y019737D01*
X024062Y019704D01*
X024094Y019668D01*
X024124Y019630D01*
X024150Y019589D01*
X024172Y019546D01*
X024192Y019502D01*
X024207Y019457D01*
X024219Y019410D01*
X024227Y019362D01*
X024231Y019314D01*
X024231Y019266D01*
X024227Y019218D01*
X024219Y019170D01*
X024207Y019123D01*
X024192Y019078D01*
X024172Y019034D01*
X024150Y018991D01*
X024124Y018950D01*
X024094Y018912D01*
X024062Y018876D01*
X024027Y018843D01*
X023989Y018813D01*
X023949Y018786D01*
X023907Y018763D01*
X023863Y018743D01*
X023818Y018726D01*
X023772Y018714D01*
X023724Y018705D01*
X023676Y018700D01*
X023628Y018699D01*
X023580Y018702D01*
X023532Y018709D01*
X023485Y018720D01*
X023439Y018734D01*
X023394Y018752D01*
X023351Y018774D01*
X023310Y018799D01*
X023272Y018828D01*
X023235Y018860D01*
X023201Y018894D01*
X023171Y018931D01*
X023143Y018970D01*
X023118Y019012D01*
X023098Y019056D01*
X023080Y019101D01*
X023067Y019147D01*
X023057Y019194D01*
X023051Y019242D01*
X023049Y019290D01*
X023049Y002290D02*
X023051Y002338D01*
X023057Y002386D01*
X023067Y002433D01*
X023080Y002479D01*
X023098Y002524D01*
X023118Y002568D01*
X023143Y002610D01*
X023171Y002649D01*
X023201Y002686D01*
X023235Y002720D01*
X023272Y002752D01*
X023310Y002781D01*
X023351Y002806D01*
X023394Y002828D01*
X023439Y002846D01*
X023485Y002860D01*
X023532Y002871D01*
X023580Y002878D01*
X023628Y002881D01*
X023676Y002880D01*
X023724Y002875D01*
X023772Y002866D01*
X023818Y002854D01*
X023863Y002837D01*
X023907Y002817D01*
X023949Y002794D01*
X023989Y002767D01*
X024027Y002737D01*
X024062Y002704D01*
X024094Y002668D01*
X024124Y002630D01*
X024150Y002589D01*
X024172Y002546D01*
X024192Y002502D01*
X024207Y002457D01*
X024219Y002410D01*
X024227Y002362D01*
X024231Y002314D01*
X024231Y002266D01*
X024227Y002218D01*
X024219Y002170D01*
X024207Y002123D01*
X024192Y002078D01*
X024172Y002034D01*
X024150Y001991D01*
X024124Y001950D01*
X024094Y001912D01*
X024062Y001876D01*
X024027Y001843D01*
X023989Y001813D01*
X023949Y001786D01*
X023907Y001763D01*
X023863Y001743D01*
X023818Y001726D01*
X023772Y001714D01*
X023724Y001705D01*
X023676Y001700D01*
X023628Y001699D01*
X023580Y001702D01*
X023532Y001709D01*
X023485Y001720D01*
X023439Y001734D01*
X023394Y001752D01*
X023351Y001774D01*
X023310Y001799D01*
X023272Y001828D01*
X023235Y001860D01*
X023201Y001894D01*
X023171Y001931D01*
X023143Y001970D01*
X023118Y002012D01*
X023098Y002056D01*
X023080Y002101D01*
X023067Y002147D01*
X023057Y002194D01*
X023051Y002242D01*
X023049Y002290D01*
D11*
X018417Y001485D03*
X018102Y001997D03*
X017472Y001997D03*
X017787Y001485D03*
X017157Y001485D03*
X016842Y001997D03*
X016212Y001997D03*
X015582Y001997D03*
X015897Y001485D03*
X016527Y001485D03*
X015267Y001485D03*
X014637Y001485D03*
X014322Y001997D03*
X014952Y001997D03*
X014007Y001485D03*
X013377Y001485D03*
X013062Y001997D03*
X013692Y001997D03*
X012747Y001485D03*
X012117Y001485D03*
X012432Y001997D03*
X012078Y002588D03*
X011566Y002903D03*
X012078Y003218D03*
X011566Y003533D03*
X012078Y003847D03*
X011566Y004162D03*
X012078Y004477D03*
X011566Y004792D03*
X011802Y005383D03*
X012117Y005895D03*
X012432Y005383D03*
X012747Y005895D03*
X013062Y005383D03*
X013377Y005895D03*
X013692Y005383D03*
X014007Y005895D03*
X014322Y005383D03*
X014637Y005895D03*
X014952Y005383D03*
X015267Y005895D03*
X015582Y005383D03*
X015897Y005895D03*
X016212Y005383D03*
X016527Y005895D03*
X016842Y005383D03*
X017157Y005895D03*
X017472Y005383D03*
X017787Y005895D03*
X018102Y005383D03*
X018417Y005895D03*
D12*
X017655Y007700D02*
X016875Y007700D01*
X014655Y007700D02*
X013875Y007700D01*
X013875Y013700D02*
X014655Y013700D01*
X014655Y015700D02*
X013875Y015700D01*
X013875Y017700D02*
X014655Y017700D01*
X016875Y017700D02*
X017655Y017700D01*
X017655Y015700D02*
X016875Y015700D01*
X016875Y013700D02*
X017655Y013700D01*
X012173Y018838D02*
X012173Y019618D01*
X010203Y019618D02*
X010203Y018838D01*
X008233Y018838D02*
X008233Y019618D01*
D13*
X010705Y016105D03*
X002825Y016105D03*
X002825Y008225D03*
X004795Y008225D03*
X008735Y008225D03*
X010705Y008225D03*
D14*
X006975Y006253D03*
X006305Y006253D03*
X005628Y005687D03*
X005628Y005018D03*
X007485Y003780D03*
X008155Y003780D03*
X008155Y002958D03*
X007485Y002958D03*
X007485Y002140D03*
X008155Y002140D03*
X008155Y001323D03*
X007485Y001323D03*
X003253Y005018D03*
X003253Y005687D03*
X020285Y015945D03*
X020285Y016615D03*
X022190Y016612D03*
X022190Y015943D03*
X022095Y010937D03*
X022095Y010268D03*
X021290Y010268D03*
X021290Y010937D03*
X022900Y010937D03*
X022900Y010268D03*
X023715Y010268D03*
X023715Y010937D03*
X023310Y009247D03*
X023310Y008578D03*
X022585Y006775D03*
X021915Y006775D03*
D15*
X023640Y002290D03*
X023640Y019290D03*
X002140Y019290D03*
X002140Y002290D03*
D16*
X004105Y004290D03*
X004775Y004290D03*
X021110Y015945D03*
X021110Y016615D03*
X023015Y016612D03*
X023833Y016612D03*
X023833Y015943D03*
X023015Y015943D03*
X024540Y010937D03*
X024540Y010268D03*
X024555Y009242D03*
X024555Y008573D03*
X022607Y007970D03*
X021938Y007970D03*
D17*
X023523Y007875D03*
X024523Y007875D03*
X024523Y005120D03*
X023523Y005120D03*
D18*
X024457Y011753D03*
X024457Y012253D03*
X024457Y012753D03*
X024457Y013253D03*
X024457Y013753D03*
X024457Y014253D03*
X024457Y014753D03*
X024457Y015253D03*
X021847Y015253D03*
X021847Y014753D03*
X021847Y014253D03*
X021847Y013753D03*
X021847Y013253D03*
X021847Y012753D03*
X021847Y012253D03*
X021847Y011753D03*
D19*
X020625Y013078D03*
X020625Y013915D03*
X019505Y013915D03*
X019505Y013078D03*
X020405Y019320D03*
X020405Y020195D03*
X021525Y020195D03*
X021525Y019320D03*
D20*
X020592Y010750D03*
X020592Y010250D03*
X018769Y010250D03*
X018769Y010750D03*
D21*
X002400Y006224D03*
X001900Y006224D03*
X001900Y004401D03*
X002400Y004401D03*
D22*
X004920Y006253D03*
X005510Y006253D03*
D23*
X004920Y005733D03*
X004920Y004973D03*
X003960Y004973D03*
X003960Y005353D03*
X003960Y005733D03*
X021648Y008585D03*
X021648Y008965D03*
X021648Y009345D03*
X022608Y009345D03*
X022608Y008585D03*
D24*
X015703Y018803D03*
X015703Y019922D03*
D25*
X020701Y018353D03*
X021804Y018353D03*
D26*
X021253Y017397D03*
D27*
X006466Y017948D02*
X006518Y017896D01*
X006346Y017896D01*
X006225Y018017D01*
X006225Y018189D01*
X006346Y018310D01*
X006518Y018310D01*
X006639Y018189D01*
X006639Y018017D01*
X006518Y017896D01*
X006486Y017974D01*
X006378Y017974D01*
X006303Y018049D01*
X006303Y018157D01*
X006378Y018232D01*
X006486Y018232D01*
X006561Y018157D01*
X006561Y018049D01*
X006486Y017974D01*
X006453Y018052D01*
X006411Y018052D01*
X006381Y018082D01*
X006381Y018124D01*
X006411Y018154D01*
X006453Y018154D01*
X006483Y018124D01*
X006483Y018082D01*
X006453Y018052D01*
X004345Y020070D02*
X004397Y020018D01*
X004225Y020018D01*
X004104Y020139D01*
X004104Y020311D01*
X004225Y020432D01*
X004397Y020432D01*
X004518Y020311D01*
X004518Y020139D01*
X004397Y020018D01*
X004365Y020096D01*
X004257Y020096D01*
X004182Y020171D01*
X004182Y020279D01*
X004257Y020354D01*
X004365Y020354D01*
X004440Y020279D01*
X004440Y020171D01*
X004365Y020096D01*
X004332Y020174D01*
X004290Y020174D01*
X004260Y020204D01*
X004260Y020246D01*
X004290Y020276D01*
X004332Y020276D01*
X004362Y020246D01*
X004362Y020204D01*
X004332Y020174D01*
D28*
X009078Y005465D03*
X010078Y005465D03*
X010078Y004465D03*
X010078Y003465D03*
X009078Y003465D03*
X009078Y004465D03*
X009078Y002465D03*
X010078Y002465D03*
X010078Y001465D03*
X009078Y001465D03*
X006590Y001450D03*
X005590Y001450D03*
X005590Y002450D03*
X004590Y002450D03*
X006590Y002450D03*
D29*
X016613Y018890D03*
X016613Y019990D03*
X018306Y019990D03*
X018306Y018890D03*
D30*
X004590Y001450D03*
M02*
