G75*
G70*
%OFA0B0*%
%FSLAX24Y24*%
%IPPOS*%
%LPD*%
%AMOC8*
5,1,8,0,0,1.08239X$1,22.5*
%
%ADD10C,0.0000*%
%ADD11C,0.0780*%
%ADD12OC8,0.1500*%
%ADD13R,0.0433X0.0394*%
%ADD14R,0.0394X0.0433*%
%ADD15R,0.0551X0.0394*%
%ADD16R,0.0591X0.0512*%
%ADD17R,0.0512X0.0591*%
%ADD18C,0.0096*%
%ADD19OC8,0.0600*%
%ADD20R,0.0630X0.0710*%
%ADD21C,0.0600*%
%ADD22C,0.0120*%
%ADD23C,0.0080*%
%ADD24C,0.0238*%
%ADD25C,0.0100*%
%ADD26C,0.0320*%
%ADD27C,0.0160*%
D10*
X000140Y000290D02*
X000140Y021156D01*
X000140Y021165D02*
X025443Y021165D01*
X025443Y021156D02*
X025443Y000290D01*
X000140Y000290D01*
X001549Y002290D02*
X001551Y002338D01*
X001557Y002386D01*
X001567Y002433D01*
X001580Y002479D01*
X001598Y002524D01*
X001618Y002568D01*
X001643Y002610D01*
X001671Y002649D01*
X001701Y002686D01*
X001735Y002720D01*
X001772Y002752D01*
X001810Y002781D01*
X001851Y002806D01*
X001894Y002828D01*
X001939Y002846D01*
X001985Y002860D01*
X002032Y002871D01*
X002080Y002878D01*
X002128Y002881D01*
X002176Y002880D01*
X002224Y002875D01*
X002272Y002866D01*
X002318Y002854D01*
X002363Y002837D01*
X002407Y002817D01*
X002449Y002794D01*
X002489Y002767D01*
X002527Y002737D01*
X002562Y002704D01*
X002594Y002668D01*
X002624Y002630D01*
X002650Y002589D01*
X002672Y002546D01*
X002692Y002502D01*
X002707Y002457D01*
X002719Y002410D01*
X002727Y002362D01*
X002731Y002314D01*
X002731Y002266D01*
X002727Y002218D01*
X002719Y002170D01*
X002707Y002123D01*
X002692Y002078D01*
X002672Y002034D01*
X002650Y001991D01*
X002624Y001950D01*
X002594Y001912D01*
X002562Y001876D01*
X002527Y001843D01*
X002489Y001813D01*
X002449Y001786D01*
X002407Y001763D01*
X002363Y001743D01*
X002318Y001726D01*
X002272Y001714D01*
X002224Y001705D01*
X002176Y001700D01*
X002128Y001699D01*
X002080Y001702D01*
X002032Y001709D01*
X001985Y001720D01*
X001939Y001734D01*
X001894Y001752D01*
X001851Y001774D01*
X001810Y001799D01*
X001772Y001828D01*
X001735Y001860D01*
X001701Y001894D01*
X001671Y001931D01*
X001643Y001970D01*
X001618Y002012D01*
X001598Y002056D01*
X001580Y002101D01*
X001567Y002147D01*
X001557Y002194D01*
X001551Y002242D01*
X001549Y002290D01*
X001549Y019290D02*
X001551Y019338D01*
X001557Y019386D01*
X001567Y019433D01*
X001580Y019479D01*
X001598Y019524D01*
X001618Y019568D01*
X001643Y019610D01*
X001671Y019649D01*
X001701Y019686D01*
X001735Y019720D01*
X001772Y019752D01*
X001810Y019781D01*
X001851Y019806D01*
X001894Y019828D01*
X001939Y019846D01*
X001985Y019860D01*
X002032Y019871D01*
X002080Y019878D01*
X002128Y019881D01*
X002176Y019880D01*
X002224Y019875D01*
X002272Y019866D01*
X002318Y019854D01*
X002363Y019837D01*
X002407Y019817D01*
X002449Y019794D01*
X002489Y019767D01*
X002527Y019737D01*
X002562Y019704D01*
X002594Y019668D01*
X002624Y019630D01*
X002650Y019589D01*
X002672Y019546D01*
X002692Y019502D01*
X002707Y019457D01*
X002719Y019410D01*
X002727Y019362D01*
X002731Y019314D01*
X002731Y019266D01*
X002727Y019218D01*
X002719Y019170D01*
X002707Y019123D01*
X002692Y019078D01*
X002672Y019034D01*
X002650Y018991D01*
X002624Y018950D01*
X002594Y018912D01*
X002562Y018876D01*
X002527Y018843D01*
X002489Y018813D01*
X002449Y018786D01*
X002407Y018763D01*
X002363Y018743D01*
X002318Y018726D01*
X002272Y018714D01*
X002224Y018705D01*
X002176Y018700D01*
X002128Y018699D01*
X002080Y018702D01*
X002032Y018709D01*
X001985Y018720D01*
X001939Y018734D01*
X001894Y018752D01*
X001851Y018774D01*
X001810Y018799D01*
X001772Y018828D01*
X001735Y018860D01*
X001701Y018894D01*
X001671Y018931D01*
X001643Y018970D01*
X001618Y019012D01*
X001598Y019056D01*
X001580Y019101D01*
X001567Y019147D01*
X001557Y019194D01*
X001551Y019242D01*
X001549Y019290D01*
X023049Y019290D02*
X023051Y019338D01*
X023057Y019386D01*
X023067Y019433D01*
X023080Y019479D01*
X023098Y019524D01*
X023118Y019568D01*
X023143Y019610D01*
X023171Y019649D01*
X023201Y019686D01*
X023235Y019720D01*
X023272Y019752D01*
X023310Y019781D01*
X023351Y019806D01*
X023394Y019828D01*
X023439Y019846D01*
X023485Y019860D01*
X023532Y019871D01*
X023580Y019878D01*
X023628Y019881D01*
X023676Y019880D01*
X023724Y019875D01*
X023772Y019866D01*
X023818Y019854D01*
X023863Y019837D01*
X023907Y019817D01*
X023949Y019794D01*
X023989Y019767D01*
X024027Y019737D01*
X024062Y019704D01*
X024094Y019668D01*
X024124Y019630D01*
X024150Y019589D01*
X024172Y019546D01*
X024192Y019502D01*
X024207Y019457D01*
X024219Y019410D01*
X024227Y019362D01*
X024231Y019314D01*
X024231Y019266D01*
X024227Y019218D01*
X024219Y019170D01*
X024207Y019123D01*
X024192Y019078D01*
X024172Y019034D01*
X024150Y018991D01*
X024124Y018950D01*
X024094Y018912D01*
X024062Y018876D01*
X024027Y018843D01*
X023989Y018813D01*
X023949Y018786D01*
X023907Y018763D01*
X023863Y018743D01*
X023818Y018726D01*
X023772Y018714D01*
X023724Y018705D01*
X023676Y018700D01*
X023628Y018699D01*
X023580Y018702D01*
X023532Y018709D01*
X023485Y018720D01*
X023439Y018734D01*
X023394Y018752D01*
X023351Y018774D01*
X023310Y018799D01*
X023272Y018828D01*
X023235Y018860D01*
X023201Y018894D01*
X023171Y018931D01*
X023143Y018970D01*
X023118Y019012D01*
X023098Y019056D01*
X023080Y019101D01*
X023067Y019147D01*
X023057Y019194D01*
X023051Y019242D01*
X023049Y019290D01*
X023049Y002290D02*
X023051Y002338D01*
X023057Y002386D01*
X023067Y002433D01*
X023080Y002479D01*
X023098Y002524D01*
X023118Y002568D01*
X023143Y002610D01*
X023171Y002649D01*
X023201Y002686D01*
X023235Y002720D01*
X023272Y002752D01*
X023310Y002781D01*
X023351Y002806D01*
X023394Y002828D01*
X023439Y002846D01*
X023485Y002860D01*
X023532Y002871D01*
X023580Y002878D01*
X023628Y002881D01*
X023676Y002880D01*
X023724Y002875D01*
X023772Y002866D01*
X023818Y002854D01*
X023863Y002837D01*
X023907Y002817D01*
X023949Y002794D01*
X023989Y002767D01*
X024027Y002737D01*
X024062Y002704D01*
X024094Y002668D01*
X024124Y002630D01*
X024150Y002589D01*
X024172Y002546D01*
X024192Y002502D01*
X024207Y002457D01*
X024219Y002410D01*
X024227Y002362D01*
X024231Y002314D01*
X024231Y002266D01*
X024227Y002218D01*
X024219Y002170D01*
X024207Y002123D01*
X024192Y002078D01*
X024172Y002034D01*
X024150Y001991D01*
X024124Y001950D01*
X024094Y001912D01*
X024062Y001876D01*
X024027Y001843D01*
X023989Y001813D01*
X023949Y001786D01*
X023907Y001763D01*
X023863Y001743D01*
X023818Y001726D01*
X023772Y001714D01*
X023724Y001705D01*
X023676Y001700D01*
X023628Y001699D01*
X023580Y001702D01*
X023532Y001709D01*
X023485Y001720D01*
X023439Y001734D01*
X023394Y001752D01*
X023351Y001774D01*
X023310Y001799D01*
X023272Y001828D01*
X023235Y001860D01*
X023201Y001894D01*
X023171Y001931D01*
X023143Y001970D01*
X023118Y002012D01*
X023098Y002056D01*
X023080Y002101D01*
X023067Y002147D01*
X023057Y002194D01*
X023051Y002242D01*
X023049Y002290D01*
D11*
X017655Y007700D02*
X016875Y007700D01*
X014655Y007700D02*
X013875Y007700D01*
X013875Y013700D02*
X014655Y013700D01*
X014655Y015700D02*
X013875Y015700D01*
X013875Y017700D02*
X014655Y017700D01*
X016875Y017700D02*
X017655Y017700D01*
X017655Y015700D02*
X016875Y015700D01*
X016875Y013700D02*
X017655Y013700D01*
X012173Y018838D02*
X012173Y019618D01*
X010203Y019618D02*
X010203Y018838D01*
X008233Y018838D02*
X008233Y019618D01*
D12*
X010705Y016105D03*
X002825Y016105D03*
X002825Y008225D03*
X004795Y008225D03*
X008735Y008225D03*
X010705Y008225D03*
D13*
X016928Y005920D03*
X017597Y005920D03*
X018615Y005910D03*
X019285Y005910D03*
X019287Y005078D03*
X018618Y005078D03*
X018487Y002568D03*
X017818Y002568D03*
X017818Y001753D03*
X018487Y001753D03*
X014275Y001660D03*
X013605Y001660D03*
D14*
X016933Y005078D03*
X017602Y005078D03*
X017682Y008750D03*
X017013Y008750D03*
X017008Y009575D03*
X017677Y009575D03*
X021980Y011285D03*
X021980Y011955D03*
X021990Y015255D03*
X021990Y015925D03*
D15*
X016311Y009477D03*
X016311Y008728D03*
X015444Y009103D03*
X014636Y008751D03*
X014636Y009499D03*
X013769Y009125D03*
D16*
X021165Y011128D03*
X021165Y011877D03*
X021165Y015241D03*
X021165Y015989D03*
D17*
X020928Y013938D03*
X021677Y013938D03*
X021677Y013078D03*
X020928Y013078D03*
D18*
X006463Y017960D02*
X006511Y017912D01*
X006353Y017912D01*
X006241Y018024D01*
X006241Y018182D01*
X006353Y018294D01*
X006511Y018294D01*
X006623Y018182D01*
X006623Y018024D01*
X006511Y017912D01*
X006482Y017984D01*
X006382Y017984D01*
X006313Y018053D01*
X006313Y018153D01*
X006382Y018222D01*
X006482Y018222D01*
X006551Y018153D01*
X006551Y018053D01*
X006482Y017984D01*
X006452Y018056D01*
X006412Y018056D01*
X006385Y018083D01*
X006385Y018123D01*
X006412Y018150D01*
X006452Y018150D01*
X006479Y018123D01*
X006479Y018083D01*
X006452Y018056D01*
X004342Y020082D02*
X004390Y020034D01*
X004232Y020034D01*
X004120Y020146D01*
X004120Y020304D01*
X004232Y020416D01*
X004390Y020416D01*
X004502Y020304D01*
X004502Y020146D01*
X004390Y020034D01*
X004361Y020106D01*
X004261Y020106D01*
X004192Y020175D01*
X004192Y020275D01*
X004261Y020344D01*
X004361Y020344D01*
X004430Y020275D01*
X004430Y020175D01*
X004361Y020106D01*
X004331Y020178D01*
X004291Y020178D01*
X004264Y020205D01*
X004264Y020245D01*
X004291Y020272D01*
X004331Y020272D01*
X004358Y020245D01*
X004358Y020205D01*
X004331Y020178D01*
D19*
X009078Y005465D03*
X010078Y005465D03*
X010078Y004465D03*
X010078Y003465D03*
X009078Y003465D03*
X009078Y004465D03*
X009078Y002465D03*
X010078Y002465D03*
X010078Y001465D03*
X009078Y001465D03*
X006590Y001450D03*
X005590Y001450D03*
X005590Y002450D03*
X004590Y002450D03*
X006590Y002450D03*
D20*
X020405Y019325D03*
X021525Y019325D03*
D21*
X004590Y001450D03*
D22*
X013605Y001660D02*
X013605Y001225D01*
X013640Y001190D01*
X018615Y005080D02*
X018618Y005078D01*
X017265Y007700D02*
X016430Y007700D01*
X015444Y008686D01*
X015444Y009103D01*
X015048Y009499D01*
X014636Y009499D01*
X013769Y009125D02*
X013769Y008196D01*
X014265Y007700D01*
X016311Y008728D02*
X016991Y008728D01*
X017013Y008750D01*
X017682Y008750D02*
X017682Y008901D01*
X017008Y009575D01*
X016409Y009575D01*
X016311Y009477D01*
X021165Y011877D02*
X021163Y011955D01*
X021980Y011955D01*
X022205Y011955D01*
X022540Y012290D01*
X022840Y010190D02*
X023780Y009250D01*
X023920Y009250D01*
X022840Y010190D02*
X022840Y014980D01*
X022570Y015250D01*
X019140Y016090D02*
X019140Y018740D01*
X019775Y019325D01*
X020405Y019325D01*
X020750Y020090D02*
X019760Y020090D01*
X020750Y020090D02*
X021525Y019325D01*
X019140Y016090D02*
X018750Y015700D01*
X017265Y015700D01*
X017640Y016090D02*
X017709Y016084D01*
X017777Y016066D01*
X017840Y016036D01*
X017897Y015996D01*
X017946Y015947D01*
X017986Y015890D01*
X018016Y015827D01*
X018034Y015759D01*
X018040Y015690D01*
X018034Y015621D01*
X018016Y015553D01*
X017986Y015490D01*
X017946Y015433D01*
X017897Y015384D01*
X017840Y015344D01*
X017777Y015314D01*
X017709Y015296D01*
X017640Y015290D01*
X010240Y015290D01*
X010153Y015298D01*
X010069Y015320D01*
X009990Y015357D01*
X009919Y015407D01*
X009857Y015469D01*
X009807Y015540D01*
X009770Y015619D01*
X009748Y015703D01*
X009740Y015790D01*
X009740Y019590D01*
X009746Y019659D01*
X009764Y019727D01*
X009794Y019790D01*
X009834Y019847D01*
X009883Y019896D01*
X009940Y019936D01*
X010003Y019966D01*
X010071Y019984D01*
X010140Y019990D01*
X010240Y019990D01*
X010309Y019984D01*
X010377Y019966D01*
X010440Y019936D01*
X010497Y019896D01*
X010546Y019847D01*
X010586Y019790D01*
X010616Y019727D01*
X010634Y019659D01*
X010640Y019590D01*
X010640Y018690D01*
X010659Y018377D01*
X010716Y018068D01*
X010809Y017768D01*
X010938Y017482D01*
X011100Y017213D01*
X011294Y016966D01*
X011516Y016744D01*
X011763Y016550D01*
X012032Y016388D01*
X012318Y016259D01*
X012618Y016166D01*
X012927Y016109D01*
X013240Y016090D01*
X017640Y016090D01*
X017810Y016051D02*
X009740Y016051D01*
X009740Y016169D02*
X012607Y016169D01*
X012255Y016288D02*
X009740Y016288D01*
X009740Y016406D02*
X012002Y016406D01*
X011806Y016525D02*
X009740Y016525D01*
X009740Y016643D02*
X011645Y016643D01*
X011498Y016762D02*
X009740Y016762D01*
X009740Y016880D02*
X011380Y016880D01*
X011268Y016999D02*
X009740Y016999D01*
X009740Y017117D02*
X011175Y017117D01*
X011087Y017236D02*
X009740Y017236D01*
X009740Y017354D02*
X011015Y017354D01*
X010943Y017473D02*
X009740Y017473D01*
X009740Y017591D02*
X010889Y017591D01*
X010835Y017710D02*
X009740Y017710D01*
X009740Y017828D02*
X010790Y017828D01*
X010753Y017947D02*
X009740Y017947D01*
X009740Y018065D02*
X010716Y018065D01*
X010694Y018184D02*
X009740Y018184D01*
X009740Y018302D02*
X010673Y018302D01*
X010656Y018421D02*
X009740Y018421D01*
X009740Y018539D02*
X010649Y018539D01*
X010642Y018658D02*
X009740Y018658D01*
X009740Y018776D02*
X010640Y018776D01*
X010640Y018895D02*
X009740Y018895D01*
X009740Y019013D02*
X010640Y019013D01*
X010640Y019132D02*
X009740Y019132D01*
X009740Y019250D02*
X010640Y019250D01*
X010640Y019369D02*
X009740Y019369D01*
X009740Y019487D02*
X010640Y019487D01*
X010639Y019606D02*
X009741Y019606D01*
X009763Y019724D02*
X010617Y019724D01*
X010550Y019843D02*
X009830Y019843D01*
X009993Y019961D02*
X010387Y019961D01*
X009740Y015932D02*
X017957Y015932D01*
X018019Y015814D02*
X009740Y015814D01*
X009750Y015695D02*
X018040Y015695D01*
X018022Y015577D02*
X009790Y015577D01*
X009868Y015458D02*
X017964Y015458D01*
X017831Y015340D02*
X010027Y015340D01*
D23*
X017677Y009575D02*
X018225Y009575D01*
X018240Y009590D01*
X016991Y008728D02*
X016991Y008439D01*
X017140Y008290D01*
X018040Y008290D01*
X018340Y007990D01*
X018340Y006990D01*
X018510Y006880D02*
X017032Y006880D01*
X016950Y006798D01*
X016702Y006550D01*
X015750Y006550D01*
X015671Y006629D01*
X015489Y006629D01*
X015361Y006501D01*
X015361Y006319D01*
X015390Y006290D01*
X009640Y006290D01*
X009640Y007078D01*
X012300Y007078D01*
X012300Y006960D01*
X012221Y006881D01*
X012221Y006699D01*
X012349Y006571D01*
X012531Y006571D01*
X012659Y006699D01*
X012659Y006881D01*
X012580Y006960D01*
X012580Y007078D01*
X020640Y007078D01*
X020640Y006290D01*
X017480Y006290D01*
X017569Y006379D01*
X017569Y006561D01*
X017530Y006600D01*
X018510Y006600D01*
X018589Y006521D01*
X018771Y006521D01*
X018899Y006649D01*
X018899Y006831D01*
X018771Y006959D01*
X018589Y006959D01*
X018510Y006880D01*
X018514Y006884D02*
X012656Y006884D01*
X012659Y006806D02*
X016958Y006806D01*
X016879Y006727D02*
X012659Y006727D01*
X012608Y006649D02*
X016801Y006649D01*
X016722Y006570D02*
X015730Y006570D01*
X015580Y006410D02*
X016760Y006410D01*
X017090Y006740D01*
X018680Y006740D01*
X018899Y006727D02*
X020640Y006727D01*
X020640Y006649D02*
X018898Y006649D01*
X018820Y006570D02*
X020640Y006570D01*
X019140Y006570D01*
X019140Y006590D02*
X020640Y006590D01*
X020640Y004690D01*
X019140Y004690D01*
X019140Y006590D01*
X019140Y006492D02*
X020640Y006492D01*
X017569Y006492D01*
X017560Y006570D02*
X018540Y006570D01*
X018899Y006806D02*
X020640Y006806D01*
X020640Y006884D02*
X018846Y006884D01*
X019140Y006413D02*
X020640Y006413D01*
X017569Y006413D01*
X017524Y006335D02*
X020640Y006335D01*
X019140Y006335D01*
X019140Y006256D02*
X020640Y006256D01*
X020640Y006178D02*
X019140Y006178D01*
X019140Y006099D02*
X020640Y006099D01*
X020640Y006021D02*
X019140Y006021D01*
X019140Y005942D02*
X020640Y005942D01*
X020640Y005864D02*
X019140Y005864D01*
X019140Y005785D02*
X020640Y005785D01*
X020640Y005707D02*
X019140Y005707D01*
X019140Y005628D02*
X020640Y005628D01*
X020640Y005550D02*
X019140Y005550D01*
X019140Y005471D02*
X020640Y005471D01*
X020640Y005393D02*
X019140Y005393D01*
X019140Y005314D02*
X020640Y005314D01*
X020640Y005236D02*
X019140Y005236D01*
X019140Y005157D02*
X020640Y005157D01*
X020640Y005079D02*
X019140Y005079D01*
X019140Y005000D02*
X020640Y005000D01*
X020640Y004922D02*
X019140Y004922D01*
X019140Y004843D02*
X020640Y004843D01*
X020640Y004765D02*
X019140Y004765D01*
X018840Y004765D02*
X017940Y004765D01*
X017940Y004690D02*
X017940Y006090D01*
X018840Y006090D01*
X018840Y004690D01*
X017940Y004690D01*
X017940Y004843D02*
X018840Y004843D01*
X018840Y004922D02*
X017940Y004922D01*
X017940Y005000D02*
X018840Y005000D01*
X018840Y005079D02*
X017940Y005079D01*
X017940Y005157D02*
X018840Y005157D01*
X018840Y005236D02*
X017940Y005236D01*
X017940Y005314D02*
X018840Y005314D01*
X018840Y005393D02*
X017940Y005393D01*
X017940Y005471D02*
X018840Y005471D01*
X018840Y005550D02*
X017940Y005550D01*
X017940Y005628D02*
X018840Y005628D01*
X018840Y005707D02*
X017940Y005707D01*
X017940Y005785D02*
X018840Y005785D01*
X018840Y005864D02*
X017940Y005864D01*
X017940Y005942D02*
X018840Y005942D01*
X018840Y006021D02*
X017940Y006021D01*
X017597Y005920D02*
X017597Y006287D01*
X017783Y006473D01*
X017350Y006470D02*
X017050Y006470D01*
X016930Y006350D01*
X016930Y005922D01*
X016928Y005920D01*
X011570Y005920D01*
X011140Y005490D01*
X011140Y003610D01*
X011120Y003590D01*
X010980Y003760D02*
X010980Y004648D01*
X010898Y004730D01*
X010528Y005100D01*
X010335Y005100D01*
X010517Y005283D01*
X010517Y005425D01*
X010118Y005425D01*
X010118Y005505D01*
X010517Y005505D01*
X010517Y005647D01*
X010260Y005905D01*
X010117Y005905D01*
X010117Y005505D01*
X010038Y005505D01*
X010038Y005905D01*
X009895Y005905D01*
X009638Y005647D01*
X009638Y005505D01*
X010037Y005505D01*
X010037Y005425D01*
X009638Y005425D01*
X009638Y005283D01*
X009820Y005100D01*
X009428Y005100D01*
X009353Y005175D01*
X009477Y005299D01*
X009477Y005631D01*
X009243Y005865D01*
X008912Y005865D01*
X008678Y005631D01*
X008678Y005299D01*
X008912Y005065D01*
X009067Y005065D01*
X009230Y004902D01*
X009312Y004820D01*
X009867Y004820D01*
X009678Y004631D01*
X009678Y004299D01*
X009912Y004065D01*
X010243Y004065D01*
X010477Y004299D01*
X010477Y004631D01*
X010288Y004820D01*
X010412Y004820D01*
X010700Y004532D01*
X010700Y003232D01*
X011100Y002832D01*
X011102Y002830D01*
X011098Y002830D01*
X010798Y003130D01*
X010308Y003130D01*
X010477Y003299D01*
X010477Y003631D01*
X010243Y003865D01*
X009912Y003865D01*
X009678Y003631D01*
X009678Y003350D01*
X009477Y003550D01*
X009477Y003631D01*
X009243Y003865D01*
X008912Y003865D01*
X008680Y003633D01*
X008680Y004132D01*
X008762Y004214D01*
X008912Y004065D01*
X009243Y004065D01*
X009477Y004299D01*
X009477Y004631D01*
X009243Y004865D01*
X008912Y004865D01*
X008678Y004631D01*
X008678Y004525D01*
X008482Y004330D01*
X008400Y004248D01*
X008400Y003332D01*
X008800Y002932D01*
X008882Y002850D01*
X008897Y002850D01*
X008678Y002631D01*
X008678Y002299D01*
X008912Y002065D01*
X009243Y002065D01*
X009405Y002227D01*
X009700Y001932D01*
X009782Y001850D01*
X009840Y001850D01*
X009638Y001647D01*
X009638Y001505D01*
X010037Y001505D01*
X010037Y001425D01*
X009638Y001425D01*
X009638Y001283D01*
X009890Y001030D01*
X009698Y001030D01*
X009453Y001275D01*
X009477Y001299D01*
X009477Y001631D01*
X009243Y001865D01*
X008912Y001865D01*
X008678Y001631D01*
X008678Y001299D01*
X008912Y001065D01*
X009243Y001065D01*
X009255Y001077D01*
X009582Y000750D01*
X010298Y000750D01*
X010880Y001332D01*
X010880Y002032D01*
X010998Y002150D01*
X011190Y002150D01*
X011190Y000430D01*
X000280Y000430D01*
X000280Y007078D01*
X011190Y007078D01*
X011190Y005738D01*
X011082Y005630D01*
X011000Y005548D01*
X011000Y003780D01*
X010980Y003760D01*
X010980Y003823D02*
X011000Y003823D01*
X011000Y003901D02*
X010980Y003901D01*
X010980Y003980D02*
X011000Y003980D01*
X011000Y004058D02*
X010980Y004058D01*
X010980Y004137D02*
X011000Y004137D01*
X011000Y004215D02*
X010980Y004215D01*
X010980Y004294D02*
X011000Y004294D01*
X011000Y004372D02*
X010980Y004372D01*
X010980Y004451D02*
X011000Y004451D01*
X011000Y004529D02*
X010980Y004529D01*
X010980Y004608D02*
X011000Y004608D01*
X011000Y004686D02*
X010942Y004686D01*
X011000Y004765D02*
X010863Y004765D01*
X010785Y004843D02*
X011000Y004843D01*
X011000Y004922D02*
X010706Y004922D01*
X010628Y005000D02*
X011000Y005000D01*
X011000Y005079D02*
X010549Y005079D01*
X010470Y004960D02*
X010840Y004590D01*
X010840Y003290D01*
X011240Y002890D01*
X016640Y002890D01*
X017470Y002060D01*
X017470Y001240D01*
X017689Y001232D02*
X017891Y001232D01*
X017891Y001290D02*
X017891Y001139D01*
X018019Y001011D01*
X018201Y001011D01*
X018329Y001139D01*
X018329Y001321D01*
X018250Y001400D01*
X018250Y001648D01*
X018240Y001658D01*
X018240Y002890D01*
X018740Y002890D01*
X018740Y000890D01*
X018240Y000890D01*
X018240Y001050D01*
X018329Y001139D01*
X018329Y001290D01*
X018740Y001290D01*
X018740Y000430D01*
X010740Y000430D01*
X010740Y001192D01*
X010838Y001290D01*
X014172Y001290D01*
X014222Y001240D01*
X014332Y001130D01*
X014332Y001128D01*
X014373Y001090D01*
X014412Y001050D01*
X014414Y001050D01*
X014421Y001044D01*
X014421Y000939D01*
X014549Y000811D01*
X014731Y000811D01*
X014859Y000939D01*
X014859Y001121D01*
X014731Y001249D01*
X014612Y001249D01*
X014568Y001290D01*
X016390Y001290D01*
X016390Y001201D01*
X016311Y001122D01*
X016311Y000940D01*
X016439Y000812D01*
X016621Y000812D01*
X016749Y000940D01*
X016749Y001021D01*
X016749Y001021D01*
X016931Y001021D01*
X016941Y001031D01*
X016941Y000939D01*
X017069Y000811D01*
X017251Y000811D01*
X017379Y000939D01*
X017379Y001021D01*
X017379Y001021D01*
X017561Y001021D01*
X017689Y001149D01*
X017689Y001290D01*
X017891Y001290D01*
X017891Y001154D02*
X017689Y001154D01*
X017615Y001075D02*
X017955Y001075D01*
X018110Y001230D02*
X018110Y001590D01*
X017948Y001753D01*
X017818Y001753D01*
X017818Y002568D01*
X018240Y002567D02*
X018740Y002567D01*
X018740Y002645D02*
X018240Y002645D01*
X018240Y002724D02*
X018740Y002724D01*
X018740Y002802D02*
X018240Y002802D01*
X018240Y002881D02*
X018740Y002881D01*
X018740Y002488D02*
X018240Y002488D01*
X018240Y002410D02*
X018740Y002410D01*
X018740Y002331D02*
X018240Y002331D01*
X018240Y002253D02*
X018740Y002253D01*
X018740Y002174D02*
X018240Y002174D01*
X018240Y002096D02*
X018740Y002096D01*
X018740Y002017D02*
X018240Y002017D01*
X018240Y001939D02*
X018740Y001939D01*
X018740Y001860D02*
X018240Y001860D01*
X018240Y001782D02*
X018740Y001782D01*
X018740Y001703D02*
X018240Y001703D01*
X018250Y001625D02*
X018740Y001625D01*
X018740Y001546D02*
X018250Y001546D01*
X018250Y001468D02*
X018740Y001468D01*
X018740Y001389D02*
X018261Y001389D01*
X018329Y001311D02*
X018740Y001311D01*
X018740Y001232D02*
X018329Y001232D01*
X018740Y001232D01*
X018740Y001154D02*
X018329Y001154D01*
X018740Y001154D01*
X018740Y001075D02*
X018265Y001075D01*
X018740Y001075D01*
X018740Y000997D02*
X018240Y000997D01*
X018240Y000918D02*
X018740Y000918D01*
X017358Y000918D01*
X017379Y000997D02*
X018740Y000997D01*
X018740Y000840D02*
X017279Y000840D01*
X017160Y001030D02*
X017160Y002070D01*
X016540Y002690D01*
X011040Y002690D01*
X010740Y002990D01*
X009840Y002990D01*
X009365Y003465D01*
X009078Y003465D01*
X009364Y003744D02*
X009791Y003744D01*
X009869Y003823D02*
X009286Y003823D01*
X009443Y003666D02*
X009712Y003666D01*
X009678Y003587D02*
X009477Y003587D01*
X009519Y003509D02*
X009678Y003509D01*
X009678Y003430D02*
X009598Y003430D01*
X009676Y003352D02*
X009678Y003352D01*
X009340Y002990D02*
X009540Y002790D01*
X009540Y002290D01*
X009840Y001990D01*
X010340Y001990D01*
X010840Y002490D01*
X016440Y002490D01*
X016840Y002090D01*
X016840Y001240D01*
X016749Y000997D02*
X016941Y000997D01*
X016962Y000918D02*
X016727Y000918D01*
X016649Y000840D02*
X017041Y000840D01*
X016530Y001031D02*
X016530Y001940D01*
X016530Y002100D01*
X016340Y002290D01*
X010940Y002290D01*
X010740Y002090D01*
X010740Y001390D01*
X010240Y000890D01*
X009640Y000890D01*
X009078Y001453D01*
X009078Y001465D01*
X008823Y001154D02*
X006859Y001154D01*
X006938Y001232D02*
X008745Y001232D01*
X008678Y001311D02*
X006990Y001311D01*
X006990Y001284D02*
X006756Y001050D01*
X006424Y001050D01*
X006190Y001284D01*
X006190Y001616D01*
X006424Y001850D01*
X006756Y001850D01*
X006990Y001616D01*
X006990Y001284D01*
X006990Y001389D02*
X008678Y001389D01*
X008678Y001468D02*
X006990Y001468D01*
X006990Y001546D02*
X008678Y001546D01*
X008678Y001625D02*
X006981Y001625D01*
X006903Y001703D02*
X008750Y001703D01*
X008828Y001782D02*
X006824Y001782D01*
X006756Y002050D02*
X006424Y002050D01*
X006190Y002284D01*
X006190Y002616D01*
X006424Y002850D01*
X006756Y002850D01*
X006990Y002616D01*
X006990Y002284D01*
X006756Y002050D01*
X006801Y002096D02*
X008881Y002096D01*
X008803Y002174D02*
X006880Y002174D01*
X006958Y002253D02*
X008724Y002253D01*
X008678Y002331D02*
X006990Y002331D01*
X006990Y002410D02*
X008678Y002410D01*
X008678Y002488D02*
X006990Y002488D01*
X006990Y002567D02*
X008678Y002567D01*
X008692Y002645D02*
X006961Y002645D01*
X006882Y002724D02*
X008770Y002724D01*
X008849Y002802D02*
X006804Y002802D01*
X006376Y002802D02*
X005860Y002802D01*
X005782Y002881D02*
X008852Y002881D01*
X008773Y002959D02*
X003618Y002959D01*
X003656Y002881D02*
X005398Y002881D01*
X005408Y002890D02*
X005150Y002632D01*
X005150Y002490D01*
X005550Y002490D01*
X005550Y002890D01*
X005408Y002890D01*
X005320Y002802D02*
X004804Y002802D01*
X004756Y002850D02*
X004424Y002850D01*
X004190Y002616D01*
X004190Y002284D01*
X004424Y002050D01*
X004756Y002050D01*
X004990Y002284D01*
X004990Y002616D01*
X004756Y002850D01*
X004882Y002724D02*
X005241Y002724D01*
X005163Y002645D02*
X004961Y002645D01*
X004990Y002567D02*
X005150Y002567D01*
X005150Y002410D02*
X005150Y002268D01*
X005408Y002010D01*
X005550Y002010D01*
X005550Y002410D01*
X005630Y002410D01*
X005630Y002490D01*
X006030Y002490D01*
X006030Y002632D01*
X005772Y002890D01*
X005630Y002890D01*
X005630Y002490D01*
X005550Y002490D01*
X005550Y002410D01*
X005150Y002410D01*
X004990Y002410D01*
X004990Y002488D02*
X005550Y002488D01*
X005550Y002410D02*
X005630Y002410D01*
X006030Y002410D01*
X006030Y002268D01*
X005772Y002010D01*
X005630Y002010D01*
X005630Y002410D01*
X005630Y002488D02*
X006190Y002488D01*
X006190Y002410D02*
X006030Y002410D01*
X006030Y002331D02*
X006190Y002331D01*
X006222Y002253D02*
X006015Y002253D01*
X005936Y002174D02*
X006300Y002174D01*
X006379Y002096D02*
X005858Y002096D01*
X005779Y002017D02*
X009615Y002017D01*
X009694Y001939D02*
X003727Y001939D01*
X003739Y002017D02*
X005401Y002017D01*
X005322Y002096D02*
X004801Y002096D01*
X004880Y002174D02*
X005244Y002174D01*
X005165Y002253D02*
X004958Y002253D01*
X004990Y002331D02*
X005150Y002331D01*
X005550Y002331D02*
X005630Y002331D01*
X005630Y002253D02*
X005550Y002253D01*
X005550Y002174D02*
X005630Y002174D01*
X005630Y002096D02*
X005550Y002096D01*
X005550Y002017D02*
X005630Y002017D01*
X005630Y001890D02*
X005772Y001890D01*
X006030Y001632D01*
X006030Y001490D01*
X005630Y001490D01*
X005630Y001410D01*
X006030Y001410D01*
X006030Y001268D01*
X005772Y001010D01*
X005630Y001010D01*
X005630Y001410D01*
X005550Y001410D01*
X005550Y001010D01*
X005408Y001010D01*
X005150Y001268D01*
X005150Y001410D01*
X005550Y001410D01*
X005550Y001490D01*
X005550Y001890D01*
X005408Y001890D01*
X005150Y001632D01*
X005150Y001490D01*
X005550Y001490D01*
X005630Y001490D01*
X005630Y001890D01*
X005630Y001860D02*
X005550Y001860D01*
X005550Y001782D02*
X005630Y001782D01*
X005630Y001703D02*
X005550Y001703D01*
X005550Y001625D02*
X005630Y001625D01*
X005630Y001546D02*
X005550Y001546D01*
X005550Y001468D02*
X004990Y001468D01*
X004990Y001530D02*
X004990Y001370D01*
X004929Y001223D01*
X004817Y001111D01*
X004670Y001050D01*
X004510Y001050D01*
X004363Y001111D01*
X004251Y001223D01*
X004190Y001370D01*
X004190Y001530D01*
X004251Y001677D01*
X004363Y001789D01*
X004510Y001850D01*
X004670Y001850D01*
X004817Y001789D01*
X004929Y001677D01*
X004990Y001530D01*
X004983Y001546D02*
X005150Y001546D01*
X005150Y001625D02*
X004951Y001625D01*
X004903Y001703D02*
X005221Y001703D01*
X005299Y001782D02*
X004824Y001782D01*
X004356Y001782D02*
X003695Y001782D01*
X003707Y001807D02*
X003495Y001366D01*
X003495Y001366D01*
X003163Y001008D01*
X003163Y001008D01*
X002739Y000763D01*
X002739Y000763D01*
X002263Y000655D01*
X002263Y000655D01*
X001775Y000691D01*
X001775Y000691D01*
X001320Y000870D01*
X001320Y000870D01*
X000938Y001175D01*
X000938Y001175D01*
X000938Y001175D01*
X000662Y001578D01*
X000662Y001578D01*
X000518Y002046D01*
X000518Y002534D01*
X000662Y003002D01*
X000662Y003002D01*
X000938Y003405D01*
X000938Y003405D01*
X000938Y003405D01*
X001320Y003710D01*
X001320Y003710D01*
X001775Y003889D01*
X002263Y003925D01*
X002739Y003817D01*
X003163Y003572D01*
X003495Y003214D01*
X003495Y003214D01*
X003495Y003214D01*
X003707Y002773D01*
X003707Y002773D01*
X003780Y002290D01*
X003707Y001807D01*
X003707Y001807D01*
X003715Y001860D02*
X005378Y001860D01*
X005802Y001860D02*
X008907Y001860D01*
X009248Y001860D02*
X009772Y001860D01*
X009772Y001782D02*
X009327Y001782D01*
X009405Y001703D02*
X009693Y001703D01*
X009638Y001625D02*
X009477Y001625D01*
X009477Y001546D02*
X009638Y001546D01*
X009638Y001389D02*
X009477Y001389D01*
X009477Y001311D02*
X009638Y001311D01*
X009688Y001232D02*
X009496Y001232D01*
X009574Y001154D02*
X009767Y001154D01*
X009845Y001075D02*
X009653Y001075D01*
X009414Y000918D02*
X003007Y000918D01*
X003143Y000997D02*
X009336Y000997D01*
X009257Y001075D02*
X009253Y001075D01*
X009477Y001468D02*
X010037Y001468D01*
X010118Y001468D02*
X010600Y001468D01*
X010600Y001448D02*
X010517Y001365D01*
X010517Y001425D01*
X010118Y001425D01*
X010118Y001505D01*
X010517Y001505D01*
X010517Y001647D01*
X010315Y001850D01*
X010398Y001850D01*
X010600Y002052D01*
X010600Y001448D01*
X010541Y001389D02*
X010517Y001389D01*
X010517Y001546D02*
X010600Y001546D01*
X010600Y001625D02*
X010517Y001625D01*
X010462Y001703D02*
X010600Y001703D01*
X010600Y001782D02*
X010383Y001782D01*
X010408Y001860D02*
X010600Y001860D01*
X010600Y001939D02*
X010486Y001939D01*
X010565Y002017D02*
X010600Y002017D01*
X010880Y002017D02*
X011190Y002017D01*
X011190Y001939D02*
X010880Y001939D01*
X010880Y001860D02*
X011190Y001860D01*
X011190Y001782D02*
X010880Y001782D01*
X010880Y001703D02*
X011190Y001703D01*
X011190Y001625D02*
X010880Y001625D01*
X010880Y001546D02*
X011190Y001546D01*
X011190Y001468D02*
X010880Y001468D01*
X010880Y001389D02*
X011190Y001389D01*
X011190Y001311D02*
X010858Y001311D01*
X010780Y001232D02*
X011190Y001232D01*
X011190Y001154D02*
X010701Y001154D01*
X010740Y001154D02*
X014309Y001154D01*
X014230Y001232D02*
X010780Y001232D01*
X010740Y001075D02*
X014387Y001075D01*
X014421Y000997D02*
X010740Y000997D01*
X010740Y000918D02*
X014442Y000918D01*
X014521Y000840D02*
X010740Y000840D01*
X010740Y000761D02*
X018740Y000761D01*
X018740Y000683D02*
X010740Y000683D01*
X010740Y000604D02*
X018740Y000604D01*
X018740Y000526D02*
X010740Y000526D01*
X010740Y000447D02*
X018740Y000447D01*
X016412Y000840D02*
X014759Y000840D01*
X014838Y000918D02*
X016333Y000918D01*
X016311Y000997D02*
X014859Y000997D01*
X014859Y001075D02*
X016311Y001075D01*
X016343Y001154D02*
X014826Y001154D01*
X014748Y001232D02*
X016390Y001232D01*
X014640Y001030D02*
X014470Y001190D01*
X014280Y001380D01*
X014280Y001655D01*
X014275Y001660D01*
X011190Y002096D02*
X010943Y002096D01*
X011047Y002881D02*
X011052Y002881D01*
X010973Y002959D02*
X010969Y002959D01*
X010895Y003038D02*
X010890Y003038D01*
X010816Y003116D02*
X010812Y003116D01*
X010738Y003195D02*
X010373Y003195D01*
X010451Y003273D02*
X010700Y003273D01*
X010700Y003352D02*
X010477Y003352D01*
X010477Y003430D02*
X010700Y003430D01*
X010700Y003509D02*
X010477Y003509D01*
X010477Y003587D02*
X010700Y003587D01*
X010700Y003666D02*
X010443Y003666D01*
X010364Y003744D02*
X010700Y003744D01*
X010700Y003823D02*
X010286Y003823D01*
X010700Y003901D02*
X008680Y003901D01*
X008680Y003823D02*
X008869Y003823D01*
X008791Y003744D02*
X008680Y003744D01*
X008680Y003666D02*
X008712Y003666D01*
X008680Y003980D02*
X010700Y003980D01*
X010700Y004058D02*
X008680Y004058D01*
X008685Y004137D02*
X008840Y004137D01*
X008540Y004190D02*
X008815Y004465D01*
X009078Y004465D01*
X009393Y004215D02*
X009762Y004215D01*
X009840Y004137D02*
X009315Y004137D01*
X009472Y004294D02*
X009683Y004294D01*
X009678Y004372D02*
X009477Y004372D01*
X009477Y004451D02*
X009678Y004451D01*
X009678Y004529D02*
X009477Y004529D01*
X009477Y004608D02*
X009678Y004608D01*
X009733Y004686D02*
X009422Y004686D01*
X009344Y004765D02*
X009811Y004765D01*
X009763Y005157D02*
X009371Y005157D01*
X009414Y005236D02*
X009685Y005236D01*
X009638Y005314D02*
X009477Y005314D01*
X009477Y005393D02*
X009638Y005393D01*
X009638Y005550D02*
X009477Y005550D01*
X009477Y005628D02*
X009638Y005628D01*
X009697Y005707D02*
X009402Y005707D01*
X009323Y005785D02*
X009775Y005785D01*
X009854Y005864D02*
X009245Y005864D01*
X008910Y005864D02*
X000280Y005864D01*
X000280Y005942D02*
X011190Y005942D01*
X011190Y005864D02*
X010301Y005864D01*
X010380Y005785D02*
X011190Y005785D01*
X011159Y005707D02*
X010458Y005707D01*
X010517Y005628D02*
X011080Y005628D01*
X011002Y005550D02*
X010517Y005550D01*
X010517Y005393D02*
X011000Y005393D01*
X011000Y005471D02*
X010118Y005471D01*
X010117Y005550D02*
X010038Y005550D01*
X010038Y005628D02*
X010117Y005628D01*
X010117Y005707D02*
X010038Y005707D01*
X010038Y005785D02*
X010117Y005785D01*
X010117Y005864D02*
X010038Y005864D01*
X010037Y005471D02*
X009477Y005471D01*
X009078Y005465D02*
X009078Y005253D01*
X009370Y004960D01*
X010470Y004960D01*
X010467Y004765D02*
X010344Y004765D01*
X010422Y004686D02*
X010546Y004686D01*
X010477Y004608D02*
X010624Y004608D01*
X010700Y004529D02*
X010477Y004529D01*
X010477Y004451D02*
X010700Y004451D01*
X010700Y004372D02*
X010477Y004372D01*
X010472Y004294D02*
X010700Y004294D01*
X010700Y004215D02*
X010393Y004215D01*
X010315Y004137D02*
X010700Y004137D01*
X011000Y005157D02*
X010392Y005157D01*
X010470Y005236D02*
X011000Y005236D01*
X011000Y005314D02*
X010517Y005314D01*
X011190Y006021D02*
X000280Y006021D01*
X000280Y006099D02*
X011190Y006099D01*
X011190Y006178D02*
X000280Y006178D01*
X000280Y006256D02*
X011190Y006256D01*
X011190Y006335D02*
X000280Y006335D01*
X000280Y006413D02*
X011190Y006413D01*
X011190Y006492D02*
X000280Y006492D01*
X000280Y006570D02*
X011190Y006570D01*
X011190Y006649D02*
X000280Y006649D01*
X000280Y006727D02*
X011190Y006727D01*
X011190Y006806D02*
X000280Y006806D01*
X000280Y006884D02*
X011190Y006884D01*
X011190Y006963D02*
X000280Y006963D01*
X000280Y007041D02*
X011190Y007041D01*
X012224Y006884D02*
X009640Y006884D01*
X009640Y006806D02*
X012221Y006806D01*
X012221Y006727D02*
X009640Y006727D01*
X009640Y006649D02*
X012272Y006649D01*
X012440Y006790D02*
X012440Y008090D01*
X012580Y007041D02*
X020640Y007041D01*
X020640Y006963D02*
X012580Y006963D01*
X012300Y006963D02*
X009640Y006963D01*
X009640Y007041D02*
X012300Y007041D01*
X009640Y006570D02*
X015430Y006570D01*
X015361Y006492D02*
X009640Y006492D01*
X009640Y006413D02*
X015361Y006413D01*
X015361Y006335D02*
X009640Y006335D01*
X008832Y005785D02*
X000280Y005785D01*
X000280Y005707D02*
X008753Y005707D01*
X008678Y005628D02*
X000280Y005628D01*
X000280Y005550D02*
X008678Y005550D01*
X008678Y005471D02*
X000280Y005471D01*
X000280Y005393D02*
X008678Y005393D01*
X008678Y005314D02*
X000280Y005314D01*
X000280Y005236D02*
X008741Y005236D01*
X008820Y005157D02*
X000280Y005157D01*
X000280Y005079D02*
X008898Y005079D01*
X008890Y004843D02*
X000280Y004843D01*
X000280Y004765D02*
X008811Y004765D01*
X008733Y004686D02*
X000280Y004686D01*
X000280Y004608D02*
X008678Y004608D01*
X008678Y004529D02*
X000280Y004529D01*
X000280Y004451D02*
X008603Y004451D01*
X008524Y004372D02*
X000280Y004372D01*
X000280Y004294D02*
X008446Y004294D01*
X008482Y004330D02*
X008482Y004330D01*
X008400Y004215D02*
X000280Y004215D01*
X000280Y004137D02*
X008400Y004137D01*
X008400Y004058D02*
X000280Y004058D01*
X000280Y003980D02*
X008400Y003980D01*
X008400Y003901D02*
X002369Y003901D01*
X002713Y003823D02*
X008400Y003823D01*
X008400Y003744D02*
X002865Y003744D01*
X003001Y003666D02*
X008400Y003666D01*
X008400Y003587D02*
X003137Y003587D01*
X003222Y003509D02*
X008400Y003509D01*
X008400Y003430D02*
X003294Y003430D01*
X003367Y003352D02*
X008400Y003352D01*
X008459Y003273D02*
X003440Y003273D01*
X003504Y003195D02*
X008538Y003195D01*
X008616Y003116D02*
X003542Y003116D01*
X003580Y003038D02*
X008695Y003038D01*
X008940Y002990D02*
X009340Y002990D01*
X008940Y002990D02*
X008540Y003390D01*
X008540Y004190D01*
X009265Y004843D02*
X009289Y004843D01*
X009210Y004922D02*
X000280Y004922D01*
X000280Y005000D02*
X009132Y005000D01*
X006298Y002724D02*
X005939Y002724D01*
X006017Y002645D02*
X006219Y002645D01*
X006190Y002567D02*
X006030Y002567D01*
X005630Y002567D02*
X005550Y002567D01*
X005550Y002645D02*
X005630Y002645D01*
X005630Y002724D02*
X005550Y002724D01*
X005550Y002802D02*
X005630Y002802D01*
X005630Y002881D02*
X005550Y002881D01*
X004376Y002802D02*
X003693Y002802D01*
X003715Y002724D02*
X004298Y002724D01*
X004219Y002645D02*
X003726Y002645D01*
X003738Y002567D02*
X004190Y002567D01*
X004190Y002488D02*
X003750Y002488D01*
X003762Y002410D02*
X004190Y002410D01*
X004190Y002331D02*
X003774Y002331D01*
X003774Y002253D02*
X004222Y002253D01*
X004300Y002174D02*
X003763Y002174D01*
X003751Y002096D02*
X004379Y002096D01*
X004277Y001703D02*
X003657Y001703D01*
X003619Y001625D02*
X004229Y001625D01*
X004197Y001546D02*
X003582Y001546D01*
X003544Y001468D02*
X004190Y001468D01*
X004190Y001389D02*
X003506Y001389D01*
X003443Y001311D02*
X004215Y001311D01*
X004247Y001232D02*
X003371Y001232D01*
X003298Y001154D02*
X004321Y001154D01*
X004450Y001075D02*
X003225Y001075D01*
X002871Y000840D02*
X009493Y000840D01*
X009571Y000761D02*
X002729Y000761D01*
X002385Y000683D02*
X011190Y000683D01*
X011190Y000761D02*
X010309Y000761D01*
X010387Y000840D02*
X011190Y000840D01*
X011190Y000918D02*
X010466Y000918D01*
X010544Y000997D02*
X011190Y000997D01*
X011190Y001075D02*
X010623Y001075D01*
X011190Y000604D02*
X000280Y000604D01*
X000280Y000526D02*
X011190Y000526D01*
X011190Y000447D02*
X000280Y000447D01*
X000280Y000683D02*
X001890Y000683D01*
X001597Y000761D02*
X000280Y000761D01*
X000280Y000840D02*
X001397Y000840D01*
X001259Y000918D02*
X000280Y000918D01*
X000280Y000997D02*
X001161Y000997D01*
X001063Y001075D02*
X000280Y001075D01*
X000280Y001154D02*
X000964Y001154D01*
X000899Y001232D02*
X000280Y001232D01*
X000280Y001311D02*
X000845Y001311D01*
X000792Y001389D02*
X000280Y001389D01*
X000280Y001468D02*
X000738Y001468D01*
X000685Y001546D02*
X000280Y001546D01*
X000280Y001625D02*
X000648Y001625D01*
X000624Y001703D02*
X000280Y001703D01*
X000280Y001782D02*
X000600Y001782D01*
X000576Y001860D02*
X000280Y001860D01*
X000280Y001939D02*
X000551Y001939D01*
X000527Y002017D02*
X000280Y002017D01*
X000280Y002096D02*
X000518Y002096D01*
X000518Y002174D02*
X000280Y002174D01*
X000280Y002253D02*
X000518Y002253D01*
X000518Y002331D02*
X000280Y002331D01*
X000280Y002410D02*
X000518Y002410D01*
X000518Y002488D02*
X000280Y002488D01*
X000280Y002567D02*
X000528Y002567D01*
X000552Y002645D02*
X000280Y002645D01*
X000280Y002724D02*
X000577Y002724D01*
X000601Y002802D02*
X000280Y002802D01*
X000280Y002881D02*
X000625Y002881D01*
X000649Y002959D02*
X000280Y002959D01*
X000280Y003038D02*
X000687Y003038D01*
X000740Y003116D02*
X000280Y003116D01*
X000280Y003195D02*
X000794Y003195D01*
X000847Y003273D02*
X000280Y003273D01*
X000280Y003352D02*
X000901Y003352D01*
X000969Y003430D02*
X000280Y003430D01*
X000280Y003509D02*
X001067Y003509D01*
X001165Y003587D02*
X000280Y003587D01*
X000280Y003666D02*
X001264Y003666D01*
X001406Y003744D02*
X000280Y003744D01*
X000280Y003823D02*
X001606Y003823D01*
X001937Y003901D02*
X000280Y003901D01*
X004730Y001075D02*
X005343Y001075D01*
X005264Y001154D02*
X004859Y001154D01*
X004933Y001232D02*
X005186Y001232D01*
X005150Y001311D02*
X004965Y001311D01*
X004990Y001389D02*
X005150Y001389D01*
X005550Y001389D02*
X005630Y001389D01*
X005630Y001311D02*
X005550Y001311D01*
X005550Y001232D02*
X005630Y001232D01*
X005630Y001154D02*
X005550Y001154D01*
X005550Y001075D02*
X005630Y001075D01*
X005837Y001075D02*
X006399Y001075D01*
X006321Y001154D02*
X005916Y001154D01*
X005994Y001232D02*
X006242Y001232D01*
X006190Y001311D02*
X006030Y001311D01*
X006030Y001389D02*
X006190Y001389D01*
X006190Y001468D02*
X005630Y001468D01*
X006030Y001546D02*
X006190Y001546D01*
X006199Y001625D02*
X006030Y001625D01*
X005959Y001703D02*
X006277Y001703D01*
X006356Y001782D02*
X005881Y001782D01*
X006781Y001075D02*
X008902Y001075D01*
X009274Y002096D02*
X009537Y002096D01*
X009458Y002174D02*
X009352Y002174D01*
X016933Y005078D02*
X016928Y005913D01*
X016928Y005920D01*
X017440Y005290D02*
X018240Y005290D01*
X018240Y004690D01*
X017440Y004690D01*
X017440Y005290D01*
X017440Y005236D02*
X018240Y005236D01*
X018240Y005157D02*
X017440Y005157D01*
X017440Y005079D02*
X018240Y005079D01*
X018240Y005000D02*
X017440Y005000D01*
X017440Y004922D02*
X018240Y004922D01*
X018240Y004843D02*
X017440Y004843D01*
X017440Y004765D02*
X018240Y004765D01*
X024640Y009720D02*
X024640Y010490D01*
X023440Y011690D01*
X023440Y013930D01*
X023760Y014250D01*
X023780Y012770D02*
X024320Y012770D01*
X024440Y012890D01*
X024440Y015890D01*
D24*
X024440Y015890D03*
X023840Y017150D03*
X023010Y017150D03*
X022210Y017160D03*
X020270Y017170D03*
X022570Y015250D03*
X023760Y014250D03*
X023750Y013750D03*
X023780Y012770D03*
X022540Y012750D03*
X022540Y012290D03*
X022540Y013290D03*
X022540Y013790D03*
X020600Y011160D03*
X022140Y009790D03*
X022740Y009790D03*
X023740Y009790D03*
X023920Y009250D03*
X024640Y009720D03*
X023940Y008490D03*
X021460Y007950D03*
X021130Y008960D03*
X018240Y009590D03*
X018680Y006740D03*
X018413Y006473D03*
X017783Y006473D03*
X017350Y006470D03*
X018110Y004900D03*
X015580Y006410D03*
X012440Y006790D03*
X012440Y008090D03*
X007463Y006273D03*
X006223Y005013D03*
X003613Y004523D03*
X003623Y004163D03*
X003203Y004163D03*
X003203Y004523D03*
X002793Y004523D03*
X002793Y004173D03*
X011120Y003590D03*
X012118Y001028D03*
X014640Y001030D03*
X016212Y001235D03*
X016530Y001031D03*
X016840Y001240D03*
X017160Y001030D03*
X017470Y001240D03*
X017788Y001018D03*
X018110Y001230D03*
X018418Y001018D03*
X019760Y020090D03*
D25*
X021179Y015255D02*
X021990Y015255D01*
X021995Y015250D01*
X022570Y015250D01*
X022393Y013938D02*
X021677Y013938D01*
X022393Y013938D02*
X022540Y013790D01*
X022540Y013290D02*
X022328Y013078D01*
X021677Y013078D01*
X021165Y015241D02*
X021179Y015255D01*
D26*
X010705Y016105D02*
X008431Y016105D01*
X006432Y018103D01*
D27*
X019231Y014950D02*
X019240Y007790D01*
X025263Y007790D01*
X025263Y017253D01*
X020180Y017253D01*
X020180Y015632D01*
X020098Y015550D01*
X019498Y014950D01*
X019231Y014950D01*
X019231Y014872D02*
X020785Y014872D01*
X020812Y014845D02*
X021518Y014845D01*
X021600Y014927D01*
X021600Y015065D01*
X021653Y015065D01*
X021653Y014981D01*
X021735Y014899D01*
X022245Y014899D01*
X022327Y014981D01*
X022327Y015060D01*
X022394Y015060D01*
X022423Y015030D01*
X022518Y014991D01*
X022546Y014991D01*
X022640Y014897D01*
X022640Y014029D01*
X022592Y014049D01*
X022550Y014049D01*
X022471Y014127D01*
X022072Y014127D01*
X022072Y014291D01*
X021990Y014373D01*
X021363Y014373D01*
X021330Y014340D01*
X021328Y014343D01*
X021295Y014377D01*
X021254Y014401D01*
X021208Y014413D01*
X020976Y014413D01*
X020976Y013985D01*
X020881Y013985D01*
X020881Y013890D01*
X020493Y013890D01*
X020493Y013619D01*
X020505Y013573D01*
X020529Y013532D01*
X020553Y013508D01*
X020529Y013483D01*
X020505Y013442D01*
X020493Y013396D01*
X020493Y013125D01*
X020881Y013125D01*
X020881Y013030D01*
X020976Y013030D01*
X020976Y012602D01*
X021208Y012602D01*
X021254Y012614D01*
X021295Y012638D01*
X021328Y012672D01*
X021330Y012675D01*
X021363Y012642D01*
X021990Y012642D01*
X022072Y012724D01*
X022072Y012888D01*
X022406Y012888D01*
X022517Y012999D01*
X022550Y013031D01*
X022592Y013031D01*
X022640Y013051D01*
X022640Y012529D01*
X022592Y012549D01*
X022488Y012549D01*
X022393Y012510D01*
X022320Y012437D01*
X022281Y012342D01*
X022281Y012314D01*
X022257Y012289D01*
X022235Y012311D01*
X021725Y012311D01*
X021643Y012229D01*
X021643Y012155D01*
X021600Y012155D01*
X021600Y012190D01*
X021518Y012272D01*
X020812Y012272D01*
X020730Y012190D01*
X020730Y011563D01*
X020762Y011530D01*
X020759Y011528D01*
X020726Y011495D01*
X020702Y011454D01*
X020690Y011408D01*
X020690Y011176D01*
X021117Y011176D01*
X021117Y011081D01*
X020690Y011081D01*
X020690Y010849D01*
X020702Y010803D01*
X020726Y010762D01*
X020759Y010729D01*
X020800Y010705D01*
X020846Y010693D01*
X021117Y010693D01*
X021117Y011081D01*
X021213Y011081D01*
X021213Y010693D01*
X021484Y010693D01*
X021530Y010705D01*
X021571Y010729D01*
X021604Y010762D01*
X021628Y010803D01*
X021640Y010849D01*
X021640Y010957D01*
X021673Y010925D01*
X021714Y010901D01*
X021759Y010889D01*
X021962Y010889D01*
X021962Y011267D01*
X021998Y011267D01*
X021998Y010889D01*
X022201Y010889D01*
X022246Y010901D01*
X022287Y010925D01*
X022321Y010958D01*
X022345Y010999D01*
X022357Y011045D01*
X022357Y011267D01*
X021998Y011267D01*
X021998Y011304D01*
X022357Y011304D01*
X022357Y011526D01*
X022345Y011571D01*
X022321Y011612D01*
X022287Y011646D01*
X022284Y011648D01*
X022317Y011680D01*
X022317Y011784D01*
X022347Y011814D01*
X022564Y012031D01*
X022592Y012031D01*
X022640Y012051D01*
X022640Y010107D01*
X023580Y009167D01*
X023697Y009050D01*
X023754Y009050D01*
X023773Y009030D01*
X023868Y008991D01*
X023972Y008991D01*
X024067Y009030D01*
X024140Y009103D01*
X024179Y009198D01*
X024179Y009302D01*
X024140Y009397D01*
X024067Y009470D01*
X023972Y009509D01*
X023868Y009509D01*
X023823Y009490D01*
X023040Y010273D01*
X023040Y015063D01*
X022923Y015180D01*
X022829Y015274D01*
X022829Y015302D01*
X022790Y015397D01*
X022717Y015470D01*
X022622Y015509D01*
X022518Y015509D01*
X022423Y015470D01*
X022394Y015440D01*
X022327Y015440D01*
X022327Y015530D01*
X022294Y015562D01*
X022297Y015564D01*
X022331Y015598D01*
X022355Y015639D01*
X022367Y015684D01*
X022367Y015906D01*
X022008Y015906D01*
X022008Y015943D01*
X021972Y015943D01*
X021972Y016321D01*
X021769Y016321D01*
X021724Y016309D01*
X021683Y016285D01*
X021649Y016252D01*
X021640Y016236D01*
X021640Y016269D01*
X021628Y016314D01*
X021604Y016355D01*
X021571Y016389D01*
X021530Y016413D01*
X021484Y016425D01*
X021213Y016425D01*
X021213Y016037D01*
X021613Y016037D01*
X021613Y015943D01*
X021972Y015943D01*
X021972Y015906D01*
X021640Y015906D01*
X021640Y015941D01*
X021213Y015941D01*
X021213Y016037D01*
X021117Y016037D01*
X021117Y015941D01*
X020690Y015941D01*
X020690Y015709D01*
X020702Y015664D01*
X020726Y015623D01*
X020759Y015589D01*
X020762Y015587D01*
X020730Y015555D01*
X020730Y014927D01*
X020812Y014845D01*
X020730Y015031D02*
X019579Y015031D01*
X019737Y015189D02*
X020730Y015189D01*
X020730Y015348D02*
X019896Y015348D01*
X020054Y015506D02*
X020730Y015506D01*
X020702Y015665D02*
X020180Y015665D01*
X020180Y015823D02*
X020690Y015823D01*
X020690Y016037D02*
X021117Y016037D01*
X021117Y016425D01*
X020846Y016425D01*
X020800Y016413D01*
X020759Y016389D01*
X020726Y016355D01*
X020702Y016314D01*
X020690Y016269D01*
X020690Y016037D01*
X020690Y016140D02*
X020180Y016140D01*
X020180Y015982D02*
X021117Y015982D01*
X021213Y015982D02*
X021613Y015982D01*
X021632Y016299D02*
X021706Y016299D01*
X021213Y016299D02*
X021117Y016299D01*
X021117Y016140D02*
X021213Y016140D01*
X020698Y016299D02*
X020180Y016299D01*
X020180Y016457D02*
X025263Y016457D01*
X025263Y016299D02*
X022274Y016299D01*
X022256Y016309D02*
X022211Y016321D01*
X022008Y016321D01*
X022008Y015943D01*
X022367Y015943D01*
X022367Y016165D01*
X022355Y016211D01*
X022331Y016252D01*
X022297Y016285D01*
X022256Y016309D01*
X022367Y016140D02*
X024367Y016140D01*
X024388Y016149D02*
X024293Y016110D01*
X024220Y016037D01*
X024181Y015942D01*
X024181Y015838D01*
X024220Y015743D01*
X024260Y015704D01*
X024260Y012965D01*
X024245Y012950D01*
X023966Y012950D01*
X023927Y012990D01*
X023832Y013029D01*
X023728Y013029D01*
X023633Y012990D01*
X023620Y012976D01*
X023620Y013855D01*
X023756Y013991D01*
X023812Y013991D01*
X023907Y014030D01*
X023980Y014103D01*
X024019Y014198D01*
X024019Y014302D01*
X023980Y014397D01*
X023907Y014470D01*
X023812Y014509D01*
X023708Y014509D01*
X023613Y014470D01*
X023540Y014397D01*
X023501Y014302D01*
X023501Y014246D01*
X023365Y014110D01*
X023260Y014005D01*
X023260Y011615D01*
X024460Y010415D01*
X024460Y009906D01*
X024420Y009867D01*
X024381Y009772D01*
X024381Y009668D01*
X024420Y009573D01*
X024493Y009500D01*
X024588Y009461D01*
X024692Y009461D01*
X024787Y009500D01*
X024860Y009573D01*
X024899Y009668D01*
X024899Y009772D01*
X024860Y009867D01*
X024820Y009906D01*
X024820Y010565D01*
X024715Y010670D01*
X023620Y011765D01*
X023620Y012564D01*
X023633Y012550D01*
X023728Y012511D01*
X023832Y012511D01*
X023927Y012550D01*
X023966Y012590D01*
X024395Y012590D01*
X024515Y012710D01*
X024620Y012815D01*
X024620Y015704D01*
X024660Y015743D01*
X024699Y015838D01*
X024699Y015942D01*
X024660Y016037D01*
X024587Y016110D01*
X024492Y016149D01*
X024388Y016149D01*
X024513Y016140D02*
X025263Y016140D01*
X025263Y015982D02*
X024682Y015982D01*
X024693Y015823D02*
X025263Y015823D01*
X025263Y015665D02*
X024620Y015665D01*
X024620Y015506D02*
X025263Y015506D01*
X025263Y015348D02*
X024620Y015348D01*
X024620Y015189D02*
X025263Y015189D01*
X025263Y015031D02*
X024620Y015031D01*
X024620Y014872D02*
X025263Y014872D01*
X025263Y014714D02*
X024620Y014714D01*
X024620Y014555D02*
X025263Y014555D01*
X025263Y014397D02*
X024620Y014397D01*
X024620Y014238D02*
X025263Y014238D01*
X025263Y014080D02*
X024620Y014080D01*
X024620Y013921D02*
X025263Y013921D01*
X025263Y013763D02*
X024620Y013763D01*
X024620Y013604D02*
X025263Y013604D01*
X025263Y013446D02*
X024620Y013446D01*
X024620Y013287D02*
X025263Y013287D01*
X025263Y013129D02*
X024620Y013129D01*
X024620Y012970D02*
X025263Y012970D01*
X025263Y012812D02*
X024616Y012812D01*
X024458Y012653D02*
X025263Y012653D01*
X025263Y012495D02*
X023620Y012495D01*
X023620Y012336D02*
X025263Y012336D01*
X025263Y012178D02*
X023620Y012178D01*
X023620Y012019D02*
X025263Y012019D01*
X025263Y011861D02*
X023620Y011861D01*
X023683Y011702D02*
X025263Y011702D01*
X025263Y011544D02*
X023841Y011544D01*
X024000Y011385D02*
X025263Y011385D01*
X025263Y011227D02*
X024158Y011227D01*
X024317Y011068D02*
X025263Y011068D01*
X025263Y010910D02*
X024475Y010910D01*
X024634Y010751D02*
X025263Y010751D01*
X025263Y010593D02*
X024792Y010593D01*
X024820Y010434D02*
X025263Y010434D01*
X025263Y010276D02*
X024820Y010276D01*
X024820Y010117D02*
X025263Y010117D01*
X025263Y009959D02*
X024820Y009959D01*
X024887Y009800D02*
X025263Y009800D01*
X025263Y009642D02*
X024888Y009642D01*
X024745Y009483D02*
X025263Y009483D01*
X025263Y009325D02*
X024170Y009325D01*
X024166Y009166D02*
X025263Y009166D01*
X025263Y009008D02*
X024012Y009008D01*
X023828Y009008D02*
X019238Y009008D01*
X019238Y009166D02*
X023581Y009166D01*
X023423Y009325D02*
X019238Y009325D01*
X019238Y009483D02*
X023264Y009483D01*
X023106Y009642D02*
X019238Y009642D01*
X019237Y009800D02*
X022947Y009800D01*
X022789Y009959D02*
X019237Y009959D01*
X019237Y010117D02*
X022640Y010117D01*
X022640Y010276D02*
X019237Y010276D01*
X019237Y010434D02*
X022640Y010434D01*
X022640Y010593D02*
X019236Y010593D01*
X019236Y010751D02*
X020737Y010751D01*
X020690Y010910D02*
X019236Y010910D01*
X019236Y011068D02*
X020690Y011068D01*
X020690Y011227D02*
X019235Y011227D01*
X019235Y011385D02*
X020690Y011385D01*
X020749Y011544D02*
X019235Y011544D01*
X019235Y011702D02*
X020730Y011702D01*
X020730Y011861D02*
X019235Y011861D01*
X019234Y012019D02*
X020730Y012019D01*
X020730Y012178D02*
X019234Y012178D01*
X019234Y012336D02*
X022281Y012336D01*
X022378Y012495D02*
X019234Y012495D01*
X019234Y012653D02*
X020547Y012653D01*
X020562Y012638D02*
X020603Y012614D01*
X020649Y012602D01*
X020881Y012602D01*
X020881Y013030D01*
X020493Y013030D01*
X020493Y012759D01*
X020505Y012713D01*
X020529Y012672D01*
X020562Y012638D01*
X020493Y012812D02*
X019233Y012812D01*
X019233Y012970D02*
X020493Y012970D01*
X020493Y013129D02*
X019233Y013129D01*
X019233Y013287D02*
X020493Y013287D01*
X020507Y013446D02*
X019233Y013446D01*
X019232Y013604D02*
X020496Y013604D01*
X020493Y013763D02*
X019232Y013763D01*
X019232Y013921D02*
X020881Y013921D01*
X020881Y013890D02*
X020976Y013890D01*
X020976Y013125D01*
X020881Y013125D01*
X020881Y013553D01*
X020881Y013890D01*
X020881Y013985D02*
X020493Y013985D01*
X020493Y014256D01*
X020505Y014302D01*
X020529Y014343D01*
X020562Y014377D01*
X020603Y014401D01*
X020649Y014413D01*
X020881Y014413D01*
X020881Y013985D01*
X020881Y014080D02*
X020976Y014080D01*
X020976Y014238D02*
X020881Y014238D01*
X020881Y014397D02*
X020976Y014397D01*
X021261Y014397D02*
X022640Y014397D01*
X022640Y014555D02*
X019231Y014555D01*
X019231Y014397D02*
X020596Y014397D01*
X020493Y014238D02*
X019231Y014238D01*
X019232Y014080D02*
X020493Y014080D01*
X020881Y013763D02*
X020976Y013763D01*
X020976Y013604D02*
X020881Y013604D01*
X020881Y013446D02*
X020976Y013446D01*
X020976Y013287D02*
X020881Y013287D01*
X020881Y013129D02*
X020976Y013129D01*
X020976Y012970D02*
X020881Y012970D01*
X020881Y012812D02*
X020976Y012812D01*
X020976Y012653D02*
X020881Y012653D01*
X021310Y012653D02*
X021352Y012653D01*
X021600Y012178D02*
X021643Y012178D01*
X022001Y012653D02*
X022640Y012653D01*
X022640Y012812D02*
X022072Y012812D01*
X022489Y012970D02*
X022640Y012970D01*
X023040Y012970D02*
X023260Y012970D01*
X023260Y012812D02*
X023040Y012812D01*
X023040Y012653D02*
X023260Y012653D01*
X023260Y012495D02*
X023040Y012495D01*
X023040Y012336D02*
X023260Y012336D01*
X023260Y012178D02*
X023040Y012178D01*
X023040Y012019D02*
X023260Y012019D01*
X023260Y011861D02*
X023040Y011861D01*
X023040Y011702D02*
X023260Y011702D01*
X023332Y011544D02*
X023040Y011544D01*
X023040Y011385D02*
X023490Y011385D01*
X023649Y011227D02*
X023040Y011227D01*
X023040Y011068D02*
X023807Y011068D01*
X023966Y010910D02*
X023040Y010910D01*
X023040Y010751D02*
X024124Y010751D01*
X024283Y010593D02*
X023040Y010593D01*
X023040Y010434D02*
X024441Y010434D01*
X024460Y010276D02*
X023040Y010276D01*
X023196Y010117D02*
X024460Y010117D01*
X024460Y009959D02*
X023354Y009959D01*
X023513Y009800D02*
X024393Y009800D01*
X024392Y009642D02*
X023671Y009642D01*
X024034Y009483D02*
X024535Y009483D01*
X025263Y008849D02*
X019239Y008849D01*
X019239Y008691D02*
X025263Y008691D01*
X025263Y008532D02*
X019239Y008532D01*
X019239Y008374D02*
X025263Y008374D01*
X025263Y008215D02*
X019239Y008215D01*
X019240Y008057D02*
X025263Y008057D01*
X025263Y007898D02*
X019240Y007898D01*
X021117Y010751D02*
X021213Y010751D01*
X021213Y010910D02*
X021117Y010910D01*
X021117Y011068D02*
X021213Y011068D01*
X021640Y010910D02*
X021699Y010910D01*
X021593Y010751D02*
X022640Y010751D01*
X022640Y010910D02*
X022261Y010910D01*
X022357Y011068D02*
X022640Y011068D01*
X022640Y011227D02*
X022357Y011227D01*
X022357Y011385D02*
X022640Y011385D01*
X022640Y011544D02*
X022352Y011544D01*
X022317Y011702D02*
X022640Y011702D01*
X022640Y011861D02*
X022393Y011861D01*
X022552Y012019D02*
X022640Y012019D01*
X021998Y011227D02*
X021962Y011227D01*
X021962Y011068D02*
X021998Y011068D01*
X021998Y010910D02*
X021962Y010910D01*
X023946Y012970D02*
X024260Y012970D01*
X024260Y013129D02*
X023620Y013129D01*
X023620Y013287D02*
X024260Y013287D01*
X024260Y013446D02*
X023620Y013446D01*
X023620Y013604D02*
X024260Y013604D01*
X024260Y013763D02*
X023620Y013763D01*
X023686Y013921D02*
X024260Y013921D01*
X024260Y014080D02*
X023956Y014080D01*
X024019Y014238D02*
X024260Y014238D01*
X024260Y014397D02*
X023980Y014397D01*
X024260Y014555D02*
X023040Y014555D01*
X023040Y014397D02*
X023540Y014397D01*
X023493Y014238D02*
X023040Y014238D01*
X023040Y014080D02*
X023335Y014080D01*
X023260Y013921D02*
X023040Y013921D01*
X023040Y013763D02*
X023260Y013763D01*
X023260Y013604D02*
X023040Y013604D01*
X023040Y013446D02*
X023260Y013446D01*
X023260Y013287D02*
X023040Y013287D01*
X023040Y013129D02*
X023260Y013129D01*
X022640Y014080D02*
X022519Y014080D01*
X022640Y014238D02*
X022072Y014238D01*
X022640Y014714D02*
X019231Y014714D01*
X020180Y016616D02*
X025263Y016616D01*
X025263Y016774D02*
X020180Y016774D01*
X020180Y016933D02*
X025263Y016933D01*
X025263Y017091D02*
X020180Y017091D01*
X020180Y017250D02*
X025263Y017250D01*
X024198Y015982D02*
X022367Y015982D01*
X022367Y015823D02*
X024187Y015823D01*
X024260Y015665D02*
X022362Y015665D01*
X022327Y015506D02*
X022511Y015506D01*
X022629Y015506D02*
X024260Y015506D01*
X024260Y015348D02*
X022810Y015348D01*
X022914Y015189D02*
X024260Y015189D01*
X024260Y015031D02*
X023040Y015031D01*
X023040Y014872D02*
X024260Y014872D01*
X024260Y014714D02*
X023040Y014714D01*
X022640Y014872D02*
X021545Y014872D01*
X021600Y015031D02*
X021653Y015031D01*
X022327Y015031D02*
X022423Y015031D01*
X022008Y015982D02*
X021972Y015982D01*
X021972Y016140D02*
X022008Y016140D01*
X022008Y016299D02*
X021972Y016299D01*
M02*
