G75*
G70*
%OFA0B0*%
%FSLAX24Y24*%
%IPPOS*%
%LPD*%
%AMOC8*
5,1,8,0,0,1.08239X$1,22.5*
%
%ADD10C,0.0000*%
%ADD11C,0.0030*%
%ADD12C,0.0060*%
D10*
X000140Y000290D02*
X000140Y021156D01*
X000140Y021165D02*
X025443Y021165D01*
X025443Y021156D02*
X025443Y000290D01*
X000140Y000290D01*
X001549Y002290D02*
X001551Y002338D01*
X001557Y002386D01*
X001567Y002433D01*
X001580Y002479D01*
X001598Y002524D01*
X001618Y002568D01*
X001643Y002610D01*
X001671Y002649D01*
X001701Y002686D01*
X001735Y002720D01*
X001772Y002752D01*
X001810Y002781D01*
X001851Y002806D01*
X001894Y002828D01*
X001939Y002846D01*
X001985Y002860D01*
X002032Y002871D01*
X002080Y002878D01*
X002128Y002881D01*
X002176Y002880D01*
X002224Y002875D01*
X002272Y002866D01*
X002318Y002854D01*
X002363Y002837D01*
X002407Y002817D01*
X002449Y002794D01*
X002489Y002767D01*
X002527Y002737D01*
X002562Y002704D01*
X002594Y002668D01*
X002624Y002630D01*
X002650Y002589D01*
X002672Y002546D01*
X002692Y002502D01*
X002707Y002457D01*
X002719Y002410D01*
X002727Y002362D01*
X002731Y002314D01*
X002731Y002266D01*
X002727Y002218D01*
X002719Y002170D01*
X002707Y002123D01*
X002692Y002078D01*
X002672Y002034D01*
X002650Y001991D01*
X002624Y001950D01*
X002594Y001912D01*
X002562Y001876D01*
X002527Y001843D01*
X002489Y001813D01*
X002449Y001786D01*
X002407Y001763D01*
X002363Y001743D01*
X002318Y001726D01*
X002272Y001714D01*
X002224Y001705D01*
X002176Y001700D01*
X002128Y001699D01*
X002080Y001702D01*
X002032Y001709D01*
X001985Y001720D01*
X001939Y001734D01*
X001894Y001752D01*
X001851Y001774D01*
X001810Y001799D01*
X001772Y001828D01*
X001735Y001860D01*
X001701Y001894D01*
X001671Y001931D01*
X001643Y001970D01*
X001618Y002012D01*
X001598Y002056D01*
X001580Y002101D01*
X001567Y002147D01*
X001557Y002194D01*
X001551Y002242D01*
X001549Y002290D01*
X001549Y019290D02*
X001551Y019338D01*
X001557Y019386D01*
X001567Y019433D01*
X001580Y019479D01*
X001598Y019524D01*
X001618Y019568D01*
X001643Y019610D01*
X001671Y019649D01*
X001701Y019686D01*
X001735Y019720D01*
X001772Y019752D01*
X001810Y019781D01*
X001851Y019806D01*
X001894Y019828D01*
X001939Y019846D01*
X001985Y019860D01*
X002032Y019871D01*
X002080Y019878D01*
X002128Y019881D01*
X002176Y019880D01*
X002224Y019875D01*
X002272Y019866D01*
X002318Y019854D01*
X002363Y019837D01*
X002407Y019817D01*
X002449Y019794D01*
X002489Y019767D01*
X002527Y019737D01*
X002562Y019704D01*
X002594Y019668D01*
X002624Y019630D01*
X002650Y019589D01*
X002672Y019546D01*
X002692Y019502D01*
X002707Y019457D01*
X002719Y019410D01*
X002727Y019362D01*
X002731Y019314D01*
X002731Y019266D01*
X002727Y019218D01*
X002719Y019170D01*
X002707Y019123D01*
X002692Y019078D01*
X002672Y019034D01*
X002650Y018991D01*
X002624Y018950D01*
X002594Y018912D01*
X002562Y018876D01*
X002527Y018843D01*
X002489Y018813D01*
X002449Y018786D01*
X002407Y018763D01*
X002363Y018743D01*
X002318Y018726D01*
X002272Y018714D01*
X002224Y018705D01*
X002176Y018700D01*
X002128Y018699D01*
X002080Y018702D01*
X002032Y018709D01*
X001985Y018720D01*
X001939Y018734D01*
X001894Y018752D01*
X001851Y018774D01*
X001810Y018799D01*
X001772Y018828D01*
X001735Y018860D01*
X001701Y018894D01*
X001671Y018931D01*
X001643Y018970D01*
X001618Y019012D01*
X001598Y019056D01*
X001580Y019101D01*
X001567Y019147D01*
X001557Y019194D01*
X001551Y019242D01*
X001549Y019290D01*
X023049Y019290D02*
X023051Y019338D01*
X023057Y019386D01*
X023067Y019433D01*
X023080Y019479D01*
X023098Y019524D01*
X023118Y019568D01*
X023143Y019610D01*
X023171Y019649D01*
X023201Y019686D01*
X023235Y019720D01*
X023272Y019752D01*
X023310Y019781D01*
X023351Y019806D01*
X023394Y019828D01*
X023439Y019846D01*
X023485Y019860D01*
X023532Y019871D01*
X023580Y019878D01*
X023628Y019881D01*
X023676Y019880D01*
X023724Y019875D01*
X023772Y019866D01*
X023818Y019854D01*
X023863Y019837D01*
X023907Y019817D01*
X023949Y019794D01*
X023989Y019767D01*
X024027Y019737D01*
X024062Y019704D01*
X024094Y019668D01*
X024124Y019630D01*
X024150Y019589D01*
X024172Y019546D01*
X024192Y019502D01*
X024207Y019457D01*
X024219Y019410D01*
X024227Y019362D01*
X024231Y019314D01*
X024231Y019266D01*
X024227Y019218D01*
X024219Y019170D01*
X024207Y019123D01*
X024192Y019078D01*
X024172Y019034D01*
X024150Y018991D01*
X024124Y018950D01*
X024094Y018912D01*
X024062Y018876D01*
X024027Y018843D01*
X023989Y018813D01*
X023949Y018786D01*
X023907Y018763D01*
X023863Y018743D01*
X023818Y018726D01*
X023772Y018714D01*
X023724Y018705D01*
X023676Y018700D01*
X023628Y018699D01*
X023580Y018702D01*
X023532Y018709D01*
X023485Y018720D01*
X023439Y018734D01*
X023394Y018752D01*
X023351Y018774D01*
X023310Y018799D01*
X023272Y018828D01*
X023235Y018860D01*
X023201Y018894D01*
X023171Y018931D01*
X023143Y018970D01*
X023118Y019012D01*
X023098Y019056D01*
X023080Y019101D01*
X023067Y019147D01*
X023057Y019194D01*
X023051Y019242D01*
X023049Y019290D01*
X023049Y002290D02*
X023051Y002338D01*
X023057Y002386D01*
X023067Y002433D01*
X023080Y002479D01*
X023098Y002524D01*
X023118Y002568D01*
X023143Y002610D01*
X023171Y002649D01*
X023201Y002686D01*
X023235Y002720D01*
X023272Y002752D01*
X023310Y002781D01*
X023351Y002806D01*
X023394Y002828D01*
X023439Y002846D01*
X023485Y002860D01*
X023532Y002871D01*
X023580Y002878D01*
X023628Y002881D01*
X023676Y002880D01*
X023724Y002875D01*
X023772Y002866D01*
X023818Y002854D01*
X023863Y002837D01*
X023907Y002817D01*
X023949Y002794D01*
X023989Y002767D01*
X024027Y002737D01*
X024062Y002704D01*
X024094Y002668D01*
X024124Y002630D01*
X024150Y002589D01*
X024172Y002546D01*
X024192Y002502D01*
X024207Y002457D01*
X024219Y002410D01*
X024227Y002362D01*
X024231Y002314D01*
X024231Y002266D01*
X024227Y002218D01*
X024219Y002170D01*
X024207Y002123D01*
X024192Y002078D01*
X024172Y002034D01*
X024150Y001991D01*
X024124Y001950D01*
X024094Y001912D01*
X024062Y001876D01*
X024027Y001843D01*
X023989Y001813D01*
X023949Y001786D01*
X023907Y001763D01*
X023863Y001743D01*
X023818Y001726D01*
X023772Y001714D01*
X023724Y001705D01*
X023676Y001700D01*
X023628Y001699D01*
X023580Y001702D01*
X023532Y001709D01*
X023485Y001720D01*
X023439Y001734D01*
X023394Y001752D01*
X023351Y001774D01*
X023310Y001799D01*
X023272Y001828D01*
X023235Y001860D01*
X023201Y001894D01*
X023171Y001931D01*
X023143Y001970D01*
X023118Y002012D01*
X023098Y002056D01*
X023080Y002101D01*
X023067Y002147D01*
X023057Y002194D01*
X023051Y002242D01*
X023049Y002290D01*
D11*
X019558Y004575D02*
X019510Y004528D01*
X019415Y004528D01*
X019367Y004575D01*
X019268Y004528D02*
X019077Y004528D01*
X019172Y004528D02*
X019172Y004813D01*
X019268Y004718D01*
X019367Y004765D02*
X019415Y004813D01*
X019510Y004813D01*
X019558Y004765D01*
X019558Y004575D01*
X018978Y004575D02*
X018930Y004528D01*
X018835Y004528D01*
X018787Y004575D01*
X018787Y004623D01*
X018835Y004670D01*
X018882Y004670D01*
X018835Y004670D02*
X018787Y004718D01*
X018787Y004765D01*
X018835Y004813D01*
X018930Y004813D01*
X018978Y004765D01*
X019075Y005360D02*
X019265Y005360D01*
X019170Y005360D02*
X019170Y005645D01*
X019265Y005550D01*
X019365Y005598D02*
X019412Y005645D01*
X019508Y005645D01*
X019555Y005598D01*
X019555Y005408D01*
X019508Y005360D01*
X019412Y005360D01*
X019365Y005408D01*
X018975Y005503D02*
X018785Y005503D01*
X018832Y005645D02*
X018832Y005360D01*
X018975Y005503D02*
X018832Y005645D01*
X017868Y005608D02*
X017868Y005418D01*
X017820Y005370D01*
X017725Y005370D01*
X017677Y005418D01*
X017578Y005370D02*
X017387Y005560D01*
X017387Y005608D01*
X017435Y005655D01*
X017530Y005655D01*
X017578Y005608D01*
X017677Y005608D02*
X017725Y005655D01*
X017820Y005655D01*
X017868Y005608D01*
X017578Y005370D02*
X017387Y005370D01*
X017288Y005370D02*
X017097Y005560D01*
X017097Y005608D01*
X017145Y005655D01*
X017240Y005655D01*
X017288Y005608D01*
X017288Y005370D02*
X017097Y005370D01*
X017150Y004813D02*
X017102Y004765D01*
X017102Y004718D01*
X017150Y004670D01*
X017245Y004670D01*
X017293Y004718D01*
X017293Y004765D01*
X017245Y004813D01*
X017150Y004813D01*
X017150Y004670D02*
X017102Y004623D01*
X017102Y004575D01*
X017150Y004528D01*
X017245Y004528D01*
X017293Y004575D01*
X017293Y004623D01*
X017245Y004670D01*
X017392Y004528D02*
X017583Y004528D01*
X017487Y004528D02*
X017487Y004813D01*
X017583Y004718D01*
X017682Y004765D02*
X017682Y004670D01*
X017730Y004623D01*
X017873Y004623D01*
X017873Y004528D02*
X017873Y004813D01*
X017730Y004813D01*
X017682Y004765D01*
X017777Y004623D02*
X017682Y004528D01*
X017692Y003163D02*
X017882Y003163D01*
X017882Y003020D01*
X017787Y003068D01*
X017740Y003068D01*
X017692Y003020D01*
X017692Y002925D01*
X017740Y002878D01*
X017835Y002878D01*
X017882Y002925D01*
X017982Y002878D02*
X018172Y002878D01*
X018077Y002878D02*
X018077Y003163D01*
X018172Y003068D01*
X018272Y003115D02*
X018320Y003163D01*
X018415Y003163D01*
X018463Y003115D01*
X018463Y002925D01*
X018415Y002878D01*
X018320Y002878D01*
X018272Y002925D01*
X018320Y002278D02*
X018415Y002278D01*
X018463Y002230D01*
X018463Y002040D01*
X018415Y001993D01*
X018320Y001993D01*
X018272Y002040D01*
X018172Y001993D02*
X017982Y001993D01*
X018077Y001993D02*
X018077Y002278D01*
X018172Y002183D01*
X018272Y002230D02*
X018320Y002278D01*
X017882Y002230D02*
X017835Y002278D01*
X017740Y002278D01*
X017692Y002230D01*
X017692Y002183D01*
X017882Y001993D01*
X017692Y001993D01*
X014175Y001973D02*
X014127Y001925D01*
X014032Y001925D01*
X013985Y001973D01*
X013885Y001925D02*
X013695Y002115D01*
X013695Y002163D01*
X013742Y002210D01*
X013837Y002210D01*
X013885Y002163D01*
X013985Y002163D02*
X014032Y002210D01*
X014127Y002210D01*
X014175Y002163D01*
X014175Y001973D01*
X013885Y001925D02*
X013695Y001925D01*
X013595Y001973D02*
X013547Y001925D01*
X013452Y001925D01*
X013405Y001973D01*
X013405Y002020D01*
X013452Y002068D01*
X013500Y002068D01*
X013452Y002068D02*
X013405Y002115D01*
X013405Y002163D01*
X013452Y002210D01*
X013547Y002210D01*
X013595Y002163D01*
X018145Y008463D02*
X018430Y008463D01*
X018430Y008605D01*
X018383Y008653D01*
X018288Y008653D01*
X018240Y008605D01*
X018240Y008463D01*
X018240Y008558D02*
X018145Y008653D01*
X018145Y008753D02*
X018335Y008943D01*
X018383Y008943D01*
X018430Y008895D01*
X018430Y008800D01*
X018383Y008753D01*
X018145Y008753D02*
X018145Y008943D01*
X017678Y009940D02*
X017678Y010225D01*
X017535Y010225D01*
X017487Y010178D01*
X017487Y010083D01*
X017535Y010035D01*
X017678Y010035D01*
X017582Y010035D02*
X017487Y009940D01*
X017387Y009940D02*
X017197Y009940D01*
X017292Y009940D02*
X017292Y010225D01*
X017387Y010130D01*
X015588Y010155D02*
X015588Y009965D01*
X015540Y009918D01*
X015445Y009918D01*
X015397Y009965D01*
X015397Y010155D01*
X015445Y010203D01*
X015540Y010203D01*
X015588Y010155D01*
X015492Y010013D02*
X015397Y009918D01*
X015297Y009918D02*
X015107Y009918D01*
X015202Y009918D02*
X015202Y010203D01*
X015297Y010108D01*
X013910Y010178D02*
X013910Y009893D01*
X013767Y009893D01*
X013720Y009940D01*
X013720Y010130D01*
X013767Y010178D01*
X013910Y010178D01*
X013620Y010083D02*
X013525Y010178D01*
X013525Y009893D01*
X013620Y009893D02*
X013430Y009893D01*
X020707Y014400D02*
X020755Y014353D01*
X020850Y014353D01*
X020897Y014400D01*
X020897Y014495D02*
X020802Y014543D01*
X020755Y014543D01*
X020707Y014495D01*
X020707Y014400D01*
X020897Y014495D02*
X020897Y014638D01*
X020707Y014638D01*
X020997Y014590D02*
X021045Y014638D01*
X021140Y014638D01*
X021188Y014590D01*
X021188Y014400D01*
X021140Y014353D01*
X021045Y014353D01*
X020997Y014400D01*
X021437Y014610D02*
X021627Y014420D01*
X021627Y014373D01*
X021727Y014420D02*
X021775Y014373D01*
X021870Y014373D01*
X021918Y014420D01*
X021918Y014610D01*
X021870Y014658D01*
X021775Y014658D01*
X021727Y014610D01*
X021627Y014658D02*
X021437Y014658D01*
X021437Y014610D01*
X021352Y016440D02*
X021257Y016440D01*
X021210Y016488D01*
X021110Y016583D02*
X020967Y016725D01*
X020967Y016440D01*
X020920Y016583D02*
X021110Y016583D01*
X021210Y016678D02*
X021257Y016725D01*
X021352Y016725D01*
X021400Y016678D01*
X021400Y016488D01*
X021352Y016440D01*
X021555Y016493D02*
X021555Y016540D01*
X021602Y016588D01*
X021745Y016588D01*
X021745Y016493D01*
X021697Y016445D01*
X021602Y016445D01*
X021555Y016493D01*
X021650Y016683D02*
X021745Y016588D01*
X021650Y016683D02*
X021555Y016730D01*
X021940Y016730D02*
X021940Y016445D01*
X022035Y016445D02*
X021845Y016445D01*
X022035Y016635D02*
X021940Y016730D01*
X022135Y016683D02*
X022182Y016730D01*
X022277Y016730D01*
X022325Y016683D01*
X022325Y016493D01*
X022277Y016445D01*
X022182Y016445D01*
X022135Y016493D01*
X021320Y018525D02*
X021320Y018810D01*
X021177Y018810D01*
X021130Y018763D01*
X021130Y018668D01*
X021177Y018620D01*
X021320Y018620D01*
X021225Y018620D02*
X021130Y018525D01*
X021030Y018525D02*
X020840Y018525D01*
X020935Y018525D02*
X020935Y018810D01*
X021030Y018715D01*
X020740Y018763D02*
X020692Y018810D01*
X020597Y018810D01*
X020550Y018763D01*
X020550Y018715D01*
X020597Y018668D01*
X020550Y018620D01*
X020550Y018573D01*
X020597Y018525D01*
X020692Y018525D01*
X020740Y018573D01*
X020645Y018668D02*
X020597Y018668D01*
X021005Y010665D02*
X021100Y010665D01*
X021147Y010618D01*
X021147Y010570D01*
X021100Y010523D01*
X020957Y010523D01*
X020957Y010618D02*
X021005Y010665D01*
X020957Y010618D02*
X020957Y010428D01*
X021005Y010380D01*
X021100Y010380D01*
X021147Y010428D01*
X021247Y010428D02*
X021295Y010380D01*
X021390Y010380D01*
X021438Y010428D01*
X021438Y010618D01*
X021390Y010665D01*
X021295Y010665D01*
X021247Y010618D01*
X021725Y010605D02*
X021772Y010558D01*
X021725Y010510D01*
X021725Y010463D01*
X021772Y010415D01*
X021867Y010415D01*
X021915Y010463D01*
X022015Y010463D02*
X022062Y010415D01*
X022157Y010415D01*
X022205Y010463D01*
X022205Y010653D01*
X022157Y010700D01*
X022062Y010700D01*
X022015Y010653D01*
X021915Y010653D02*
X021867Y010700D01*
X021772Y010700D01*
X021725Y010653D01*
X021725Y010605D01*
X021772Y010558D02*
X021820Y010558D01*
D12*
X014263Y009685D02*
X013943Y009685D01*
X013943Y009465D01*
X013943Y008785D02*
X013943Y008565D01*
X014263Y008565D01*
M02*
