G75*
G70*
%OFA0B0*%
%FSLAX24Y24*%
%IPPOS*%
%LPD*%
%AMOC8*
5,1,8,0,0,1.08239X$1,22.5*
%
%ADD10C,0.0000*%
D10*
X000140Y000290D02*
X000140Y021156D01*
X000140Y021165D02*
X025443Y021165D01*
X025443Y021156D02*
X025443Y000290D01*
X000140Y000290D01*
X001549Y002290D02*
X001551Y002338D01*
X001557Y002386D01*
X001567Y002433D01*
X001580Y002479D01*
X001598Y002524D01*
X001618Y002568D01*
X001643Y002610D01*
X001671Y002649D01*
X001701Y002686D01*
X001735Y002720D01*
X001772Y002752D01*
X001810Y002781D01*
X001851Y002806D01*
X001894Y002828D01*
X001939Y002846D01*
X001985Y002860D01*
X002032Y002871D01*
X002080Y002878D01*
X002128Y002881D01*
X002176Y002880D01*
X002224Y002875D01*
X002272Y002866D01*
X002318Y002854D01*
X002363Y002837D01*
X002407Y002817D01*
X002449Y002794D01*
X002489Y002767D01*
X002527Y002737D01*
X002562Y002704D01*
X002594Y002668D01*
X002624Y002630D01*
X002650Y002589D01*
X002672Y002546D01*
X002692Y002502D01*
X002707Y002457D01*
X002719Y002410D01*
X002727Y002362D01*
X002731Y002314D01*
X002731Y002266D01*
X002727Y002218D01*
X002719Y002170D01*
X002707Y002123D01*
X002692Y002078D01*
X002672Y002034D01*
X002650Y001991D01*
X002624Y001950D01*
X002594Y001912D01*
X002562Y001876D01*
X002527Y001843D01*
X002489Y001813D01*
X002449Y001786D01*
X002407Y001763D01*
X002363Y001743D01*
X002318Y001726D01*
X002272Y001714D01*
X002224Y001705D01*
X002176Y001700D01*
X002128Y001699D01*
X002080Y001702D01*
X002032Y001709D01*
X001985Y001720D01*
X001939Y001734D01*
X001894Y001752D01*
X001851Y001774D01*
X001810Y001799D01*
X001772Y001828D01*
X001735Y001860D01*
X001701Y001894D01*
X001671Y001931D01*
X001643Y001970D01*
X001618Y002012D01*
X001598Y002056D01*
X001580Y002101D01*
X001567Y002147D01*
X001557Y002194D01*
X001551Y002242D01*
X001549Y002290D01*
X001549Y019290D02*
X001551Y019338D01*
X001557Y019386D01*
X001567Y019433D01*
X001580Y019479D01*
X001598Y019524D01*
X001618Y019568D01*
X001643Y019610D01*
X001671Y019649D01*
X001701Y019686D01*
X001735Y019720D01*
X001772Y019752D01*
X001810Y019781D01*
X001851Y019806D01*
X001894Y019828D01*
X001939Y019846D01*
X001985Y019860D01*
X002032Y019871D01*
X002080Y019878D01*
X002128Y019881D01*
X002176Y019880D01*
X002224Y019875D01*
X002272Y019866D01*
X002318Y019854D01*
X002363Y019837D01*
X002407Y019817D01*
X002449Y019794D01*
X002489Y019767D01*
X002527Y019737D01*
X002562Y019704D01*
X002594Y019668D01*
X002624Y019630D01*
X002650Y019589D01*
X002672Y019546D01*
X002692Y019502D01*
X002707Y019457D01*
X002719Y019410D01*
X002727Y019362D01*
X002731Y019314D01*
X002731Y019266D01*
X002727Y019218D01*
X002719Y019170D01*
X002707Y019123D01*
X002692Y019078D01*
X002672Y019034D01*
X002650Y018991D01*
X002624Y018950D01*
X002594Y018912D01*
X002562Y018876D01*
X002527Y018843D01*
X002489Y018813D01*
X002449Y018786D01*
X002407Y018763D01*
X002363Y018743D01*
X002318Y018726D01*
X002272Y018714D01*
X002224Y018705D01*
X002176Y018700D01*
X002128Y018699D01*
X002080Y018702D01*
X002032Y018709D01*
X001985Y018720D01*
X001939Y018734D01*
X001894Y018752D01*
X001851Y018774D01*
X001810Y018799D01*
X001772Y018828D01*
X001735Y018860D01*
X001701Y018894D01*
X001671Y018931D01*
X001643Y018970D01*
X001618Y019012D01*
X001598Y019056D01*
X001580Y019101D01*
X001567Y019147D01*
X001557Y019194D01*
X001551Y019242D01*
X001549Y019290D01*
X023049Y019290D02*
X023051Y019338D01*
X023057Y019386D01*
X023067Y019433D01*
X023080Y019479D01*
X023098Y019524D01*
X023118Y019568D01*
X023143Y019610D01*
X023171Y019649D01*
X023201Y019686D01*
X023235Y019720D01*
X023272Y019752D01*
X023310Y019781D01*
X023351Y019806D01*
X023394Y019828D01*
X023439Y019846D01*
X023485Y019860D01*
X023532Y019871D01*
X023580Y019878D01*
X023628Y019881D01*
X023676Y019880D01*
X023724Y019875D01*
X023772Y019866D01*
X023818Y019854D01*
X023863Y019837D01*
X023907Y019817D01*
X023949Y019794D01*
X023989Y019767D01*
X024027Y019737D01*
X024062Y019704D01*
X024094Y019668D01*
X024124Y019630D01*
X024150Y019589D01*
X024172Y019546D01*
X024192Y019502D01*
X024207Y019457D01*
X024219Y019410D01*
X024227Y019362D01*
X024231Y019314D01*
X024231Y019266D01*
X024227Y019218D01*
X024219Y019170D01*
X024207Y019123D01*
X024192Y019078D01*
X024172Y019034D01*
X024150Y018991D01*
X024124Y018950D01*
X024094Y018912D01*
X024062Y018876D01*
X024027Y018843D01*
X023989Y018813D01*
X023949Y018786D01*
X023907Y018763D01*
X023863Y018743D01*
X023818Y018726D01*
X023772Y018714D01*
X023724Y018705D01*
X023676Y018700D01*
X023628Y018699D01*
X023580Y018702D01*
X023532Y018709D01*
X023485Y018720D01*
X023439Y018734D01*
X023394Y018752D01*
X023351Y018774D01*
X023310Y018799D01*
X023272Y018828D01*
X023235Y018860D01*
X023201Y018894D01*
X023171Y018931D01*
X023143Y018970D01*
X023118Y019012D01*
X023098Y019056D01*
X023080Y019101D01*
X023067Y019147D01*
X023057Y019194D01*
X023051Y019242D01*
X023049Y019290D01*
X023049Y002290D02*
X023051Y002338D01*
X023057Y002386D01*
X023067Y002433D01*
X023080Y002479D01*
X023098Y002524D01*
X023118Y002568D01*
X023143Y002610D01*
X023171Y002649D01*
X023201Y002686D01*
X023235Y002720D01*
X023272Y002752D01*
X023310Y002781D01*
X023351Y002806D01*
X023394Y002828D01*
X023439Y002846D01*
X023485Y002860D01*
X023532Y002871D01*
X023580Y002878D01*
X023628Y002881D01*
X023676Y002880D01*
X023724Y002875D01*
X023772Y002866D01*
X023818Y002854D01*
X023863Y002837D01*
X023907Y002817D01*
X023949Y002794D01*
X023989Y002767D01*
X024027Y002737D01*
X024062Y002704D01*
X024094Y002668D01*
X024124Y002630D01*
X024150Y002589D01*
X024172Y002546D01*
X024192Y002502D01*
X024207Y002457D01*
X024219Y002410D01*
X024227Y002362D01*
X024231Y002314D01*
X024231Y002266D01*
X024227Y002218D01*
X024219Y002170D01*
X024207Y002123D01*
X024192Y002078D01*
X024172Y002034D01*
X024150Y001991D01*
X024124Y001950D01*
X024094Y001912D01*
X024062Y001876D01*
X024027Y001843D01*
X023989Y001813D01*
X023949Y001786D01*
X023907Y001763D01*
X023863Y001743D01*
X023818Y001726D01*
X023772Y001714D01*
X023724Y001705D01*
X023676Y001700D01*
X023628Y001699D01*
X023580Y001702D01*
X023532Y001709D01*
X023485Y001720D01*
X023439Y001734D01*
X023394Y001752D01*
X023351Y001774D01*
X023310Y001799D01*
X023272Y001828D01*
X023235Y001860D01*
X023201Y001894D01*
X023171Y001931D01*
X023143Y001970D01*
X023118Y002012D01*
X023098Y002056D01*
X023080Y002101D01*
X023067Y002147D01*
X023057Y002194D01*
X023051Y002242D01*
X023049Y002290D01*
M02*
